<svg xmlns="http://www.w3.org/2000/svg" viewBox="0 0 85 39" fill="none">
                        <path d="M9.35938 28.1719C12.6719 28.1719 13.6823 23.4687 13.8229 20.2083C14.9271 21.3594 16.1302 22.0312 17.5208 22.0312C18.5781 22.0312 19.6823 21.6927 20.7812 20.9739C21.1198 20.8281 21.2656 20.5885 21.2656 20.1562C21.2656 20.0156 21.2135 19.8229 21.1198 19.6771C20.9271 19.3437 20.6406 19.1979 20.3021 19.1979C20.0625 19.1979 19.9219 19.2448 19.776 19.3437C18.9583 19.8698 18.1927 20.1094 17.5208 20.1094C15.6458 20.1094 14.6875 18.1875 13.9688 17.1823C13.6823 16.8437 13.3906 16.7031 13.0573 16.7031C12.9115 16.7031 12.7656 16.7031 12.7188 16.75C12.2396 16.8958 12 17.276 11.9531 17.901V18.526C11.9531 20.4948 11.5677 26.2552 9.40625 26.2552C7.77604 26.2552 7.48958 22.9896 7.48958 20.5416C7.48958 19.7239 7.53646 19.0052 7.53646 18.4791C7.58333 17.9479 7.15104 17.4687 6.57812 17.4687C6.14583 17.4687 5.80729 17.6614 5.66146 18.0937C5.04167 19.776 3.55208 24.1875 2.35417 25.5364C2.01563 24.8125 1.92187 23.7083 1.92187 22.5104C1.92187 20.3489 2.25521 17.901 2.78125 16.4114C2.92708 15.7916 2.73437 15.4062 2.16146 15.1666C1.63021 15.0208 1.10417 15.2604 0.958333 15.7916C0.432292 17.3281 0 20.0156 0 22.4635C0 25.151 0.578124 27.6458 2.30208 27.6458C3.88542 27.6458 5.08854 24.9114 5.71354 23.4219C6.09375 25.8698 6.91146 28.1719 9.35938 28.1719Z" fill="#4989AD" />
                        <path d="M19.2939 27.9323C19.7262 28.2239 20.2054 28.3646 20.7366 28.3646C22.5127 28.3646 24.5752 26.3021 25.6793 24.526C25.5335 26.7812 26.5908 28.3646 28.2731 28.3646C30.1898 28.3646 32.9762 26.3021 36.0491 20.6875C36.096 20.4948 36.1429 20.3489 36.1429 20.2552C36.1429 19.8698 35.9502 19.5833 35.6168 19.3906C35.5179 19.3437 35.3773 19.2917 35.1846 19.2917C34.7991 19.2917 34.5127 19.4375 34.32 19.776C32.7835 22.8437 29.9502 26.3958 28.5596 26.3958C28.0335 26.3958 27.7418 25.9635 27.7418 24.6719C27.7418 24.0469 27.7939 23.276 27.9814 22.3177C28.1273 21.3125 28.32 20.3021 28.6533 19.3906C28.8981 18.6719 28.4658 18.0469 27.7418 18.0469C27.4085 18.0469 27.1221 18.2396 26.8773 18.6198C25.7262 20.8281 23.8564 24.4792 21.8877 25.9167C21.4554 26.2552 21.1221 26.3958 20.7835 26.3958C20.2575 26.3958 20.0179 26.0156 20.0179 25.1979C20.0179 22.7031 22.846 17.1354 27.9814 17.1354C28.5127 17.1354 28.945 16.7031 28.945 16.1719C28.945 15.6458 28.5127 15.2135 27.9814 15.2135C21.9814 15.2135 18.1429 21.3125 18.1429 25.1979C18.1429 26.3958 18.5283 27.4062 19.2939 27.9323Z" fill="#4989AD" />
                        <path d="M38.1615 28.2708C40.1772 28.2708 40.7501 25.9167 41.1355 24.3802C41.5209 23.0885 41.8074 22.125 42.1459 20.8281C43.0053 21.3594 44.0157 21.5989 45.1667 21.5989C46.1303 21.5989 47.1355 21.4062 48.1459 20.9739C48.5782 20.8281 48.7657 20.5417 48.7657 20.1094C48.7657 20.0625 48.7188 19.9167 48.672 19.7239C48.5261 19.3437 48.1928 19.151 47.7605 19.151C47.6147 19.151 47.474 19.151 47.422 19.1979C46.6563 19.5364 45.8855 19.6771 45.1667 19.6771C43.7761 19.6771 42.7188 19.1042 42.5782 18.6719C42.5782 18.526 42.672 18.3802 42.672 18.1406C42.672 17.7604 42.5261 17.375 41.9532 17.1823C41.422 17.0364 41.0417 17.2292 40.8022 17.7604L40.6563 18.4323C40.3699 20.3958 38.8803 26.4948 38.1095 26.3489C37.3438 25.9635 36.2865 22.3646 36.2865 18.6198C36.2865 17.8073 36.3334 16.9896 36.4324 16.2239C36.4792 15.6458 36.0938 15.1198 35.474 15.1198C34.9428 15.1198 34.6095 15.4062 34.5105 15.9323C34.4167 16.6042 34.3699 17.4219 34.3699 18.3802C34.3699 22.5104 35.3282 28.2708 38.1615 28.2708Z" fill="#4989AD" />
                        <path d="M51.9854 28.3646C55.1052 28.3646 58.9438 26.5885 62.5427 20.6875C62.6417 20.5417 62.6886 20.3958 62.6886 20.2083C62.6886 19.776 62.5427 19.5364 62.2094 19.3906C62.0636 19.2917 61.8708 19.2448 61.7302 19.2448C61.3917 19.2448 61.1052 19.3906 60.9125 19.6771C59.2302 22.5104 57.4073 24.3802 55.4854 25.4844C54.3813 26.0625 53.0896 26.4479 51.7927 26.4479C50.0167 26.4479 48.4802 25.6771 48.4802 23.6146C48.4802 23.375 48.5271 23.1354 48.574 22.7969C51.7927 22.5573 55.5844 20.2083 55.5844 17.6614C55.5844 16.2708 54.5271 15.1667 52.9906 15.1667C52.0323 15.1667 50.8813 15.5989 49.6781 16.75C47.8083 18.526 46.6052 21.2604 46.6052 23.6146C46.6052 26.1562 48.0948 28.3646 51.9854 28.3646ZM49.2458 20.7344C50.5427 18.0469 52.1261 17.0885 53.0375 17.0885C53.3761 17.0885 53.5688 17.1823 53.6156 17.4219C53.8552 18.526 51.6 20.3489 49.2458 20.7344Z" fill="#4989AD" />
                        <path d="M83.1368 38.4479C83.6628 38.4479 84.0483 38.0625 84.0951 37.5365C84.5274 28.8438 84.9128 22.6042 84.9128 17.375C84.9128 12.8125 84.6733 9.11979 84.0483 5.08854C83.5222 1.82292 82.366 0 80.642 0C77.1837 0 74.9285 8.20833 73.6785 13.3438C73.4389 14.349 73.2983 15.1667 73.1524 15.8385C72.767 12 72.0951 5.13542 68.7826 5.13542C65.1837 5.13542 64.5118 12.5729 62.2097 25.2448C62.2566 19.6302 62.7826 12 64.3191 1.4375C64.366 0.911459 64.0326 0.479167 63.5014 0.333333C62.9753 0.286459 62.543 0.619792 62.4024 1.15104C61.392 8.58854 60.2878 18.0469 60.2878 26.4948C60.2878 29.1354 60.3816 31.5833 60.6264 33.8854C60.6733 34.4115 61.0066 34.75 61.5378 34.75C62.0639 34.75 62.4493 34.5104 62.4962 33.9844C64.991 21.0677 66.866 7.05208 68.7358 7.05208C70.7983 7.05208 71.6628 18.8646 71.6628 25.3906C71.6628 26.6875 71.616 27.7396 71.5691 28.5104C71.5222 29.0885 72.0014 29.5677 72.5743 29.5677C73.1055 29.5677 73.4389 29.2292 73.4858 28.7031C75.0222 10.5104 79.0535 1.77604 80.642 1.91667C80.9753 1.96354 81.7462 2.63542 82.1733 5.375C82.7514 9.21354 83.0378 12.7656 83.0378 17.2292C83.0378 22.224 82.7045 28.3646 82.1733 37.4375C82.1264 37.9635 82.5118 38.4479 83.0378 38.4479H83.1368Z" fill="#4989AD" />
                    </svg>