<svg xmlns="http://www.w3.org/2000/svg" xmlns:xlink="http://www.w3.org/1999/xlink" width="500" zoomAndPan="magnify" viewBox="0 0 375 374.999991" height="500" preserveAspectRatio="xMidYMid meet" version="1.0"><defs><g/><clipPath id="2925c9334c"><path d="M 85.308594 187.5 L 235 187.5 L 235 206.25 L 85.308594 206.25 Z M 85.308594 187.5 " clip-rule="nonzero"/></clipPath><clipPath id="ba3574315f"><path d="M 170.648438 131.25 L 254.875 131.25 L 254.875 243.75 L 170.648438 243.75 Z M 170.648438 131.25 " clip-rule="nonzero"/></clipPath></defs><rect x="-37.5" width="450" fill="#ffffff" y="-37.499999" height="449.999989" fill-opacity="1"/><rect x="-37.5" width="450" fill="#ffffff" y="-37.499999" height="449.999989" fill-opacity="1"/><g clip-path="url(#2925c9334c)"><path fill="#004aad" d="M 233.023438 198.507812 C 229.449219 198.507812 227.734375 196.695312 225.378906 194.203125 L 225.320312 194.144531 C 222.5 191.179688 219.011719 187.5 212.234375 187.5 C 205.402344 187.5 201.914062 191.207031 199.09375 194.203125 C 196.738281 196.695312 195.023438 198.507812 191.449219 198.507812 C 187.871094 198.507812 186.15625 196.695312 183.800781 194.203125 L 183.714844 194.117188 C 180.921875 191.179688 177.464844 187.53125 170.746094 187.53125 C 163.914062 187.53125 160.425781 191.238281 157.632812 194.203125 L 157.605469 194.234375 C 155.25 196.726562 153.535156 198.535156 149.957031 198.535156 C 146.382812 198.535156 144.667969 196.726562 142.3125 194.234375 L 142.226562 194.144531 C 139.433594 191.207031 135.945312 187.53125 129.171875 187.53125 C 122.339844 187.53125 118.847656 191.238281 116.058594 194.203125 L 116.027344 194.234375 C 113.675781 196.726562 111.957031 198.535156 108.382812 198.535156 C 104.804688 198.535156 103.089844 196.726562 100.734375 194.234375 L 100.675781 194.175781 C 97.859375 191.207031 94.367188 187.53125 87.59375 187.53125 L 85.851562 187.53125 L 85.851562 195.242188 L 87.59375 195.242188 C 91.171875 195.242188 92.886719 197.054688 95.242188 199.546875 L 95.328125 199.632812 C 98.121094 202.570312 101.609375 206.25 108.382812 206.25 C 115.214844 206.25 118.703125 202.542969 121.496094 199.574219 L 121.523438 199.546875 C 123.878906 197.054688 125.59375 195.242188 129.171875 195.242188 C 132.746094 195.242188 134.460938 197.054688 136.816406 199.546875 L 136.875 199.605469 C 139.695312 202.570312 143.183594 206.25 149.957031 206.25 C 156.792969 206.25 160.28125 202.542969 163.070312 199.574219 L 163.101562 199.546875 C 165.457031 197.054688 167.171875 195.242188 170.746094 195.242188 C 174.351562 195.242188 176.039062 197.054688 178.363281 199.546875 C 181.15625 202.511719 184.644531 206.21875 191.476562 206.21875 C 198.308594 206.21875 201.796875 202.511719 204.589844 199.546875 L 204.617188 199.515625 C 206.972656 197.023438 208.6875 195.214844 212.265625 195.214844 C 215.839844 195.214844 217.558594 197.023438 219.910156 199.515625 L 219.96875 199.574219 C 222.789062 202.542969 226.277344 206.21875 233.023438 206.21875 L 234.769531 206.21875 L 234.769531 198.507812 Z M 233.023438 198.507812 " fill-opacity="1" fill-rule="nonzero"/></g><g clip-path="url(#ba3574315f)"><path fill="#ffffff" d="M 170.648438 131.25 L 254.875 131.25 L 254.875 243.75 L 170.648438 243.75 Z M 170.648438 131.25 " fill-opacity="1" fill-rule="nonzero"/></g><g fill="#004aad" fill-opacity="1"><g transform="translate(177.940116, 206.927696)"><g><path d="M 7.34375 -4.933594 C 9.828125 -4.933594 10.585938 -8.460938 10.691406 -10.90625 C 11.519531 -10.042969 12.421875 -9.539062 13.464844 -9.539062 C 14.257812 -9.539062 15.085938 -9.792969 15.910156 -10.332031 C 16.164062 -10.441406 16.273438 -10.621094 16.273438 -10.945312 C 16.273438 -11.050781 16.234375 -11.195312 16.164062 -11.304688 C 16.019531 -11.554688 15.804688 -11.664062 15.550781 -11.664062 C 15.371094 -11.664062 15.265625 -11.628906 15.15625 -11.554688 C 14.542969 -11.160156 13.96875 -10.980469 13.464844 -10.980469 C 12.058594 -10.980469 11.339844 -12.421875 10.800781 -13.175781 C 10.585938 -13.429688 10.367188 -13.535156 10.117188 -13.535156 C 10.007812 -13.535156 9.898438 -13.535156 9.863281 -13.5 C 9.503906 -13.390625 9.324219 -13.105469 9.289062 -12.636719 L 9.289062 -12.167969 C 9.289062 -10.691406 9 -6.371094 7.378906 -6.371094 C 6.15625 -6.371094 5.941406 -8.820312 5.941406 -10.65625 C 5.941406 -11.269531 5.976562 -11.808594 5.976562 -12.203125 C 6.011719 -12.601562 5.6875 -12.960938 5.257812 -12.960938 C 4.933594 -12.960938 4.679688 -12.816406 4.570312 -12.492188 C 4.105469 -11.230469 2.988281 -7.921875 2.089844 -6.910156 C 1.835938 -7.453125 1.765625 -8.28125 1.765625 -9.179688 C 1.765625 -10.800781 2.015625 -12.636719 2.410156 -13.753906 C 2.519531 -14.21875 2.375 -14.507812 1.945312 -14.6875 C 1.546875 -14.796875 1.152344 -14.617188 1.042969 -14.21875 C 0.648438 -13.066406 0.324219 -11.050781 0.324219 -9.214844 C 0.324219 -7.199219 0.757812 -5.328125 2.050781 -5.328125 C 3.238281 -5.328125 4.140625 -7.378906 4.609375 -8.496094 C 4.894531 -6.660156 5.507812 -4.933594 7.34375 -4.933594 Z M 7.34375 -4.933594 "/></g></g></g><g fill="#004aad" fill-opacity="1"><g transform="translate(192.844145, 206.927696)"><g><path d="M -0.109375 -5.113281 C 0.214844 -4.894531 0.574219 -4.789062 0.972656 -4.789062 C 2.304688 -4.789062 3.851562 -6.335938 4.679688 -7.667969 C 4.570312 -5.976562 5.363281 -4.789062 6.625 -4.789062 C 8.0625 -4.789062 10.152344 -6.335938 12.457031 -10.546875 C 12.492188 -10.691406 12.527344 -10.800781 12.527344 -10.871094 C 12.527344 -11.160156 12.382812 -11.375 12.132812 -11.519531 C 12.058594 -11.554688 11.953125 -11.59375 11.808594 -11.59375 C 11.519531 -11.59375 11.304688 -11.484375 11.160156 -11.230469 C 10.007812 -8.929688 7.882812 -6.265625 6.839844 -6.265625 C 6.445312 -6.265625 6.226562 -6.589844 6.226562 -7.558594 C 6.226562 -8.027344 6.265625 -8.605469 6.40625 -9.324219 C 6.515625 -10.078125 6.660156 -10.835938 6.910156 -11.519531 C 7.09375 -12.058594 6.769531 -12.527344 6.226562 -12.527344 C 5.976562 -12.527344 5.761719 -12.382812 5.578125 -12.097656 C 4.714844 -10.441406 3.3125 -7.703125 1.835938 -6.625 C 1.511719 -6.371094 1.261719 -6.265625 1.007812 -6.265625 C 0.613281 -6.265625 0.433594 -6.550781 0.433594 -7.164062 C 0.433594 -9.035156 2.554688 -13.210938 6.40625 -13.210938 C 6.804688 -13.210938 7.128906 -13.535156 7.128906 -13.933594 C 7.128906 -14.328125 6.804688 -14.652344 6.40625 -14.652344 C 1.90625 -14.652344 -0.972656 -10.078125 -0.972656 -7.164062 C -0.972656 -6.265625 -0.683594 -5.507812 -0.109375 -5.113281 Z M -0.109375 -5.113281 "/></g></g></g><g fill="#004aad" fill-opacity="1"><g transform="translate(203.608171, 206.927696)"><g><path d="M 3.277344 -4.859375 C 4.789062 -4.859375 5.21875 -6.625 5.507812 -7.777344 C 5.796875 -8.746094 6.011719 -9.46875 6.265625 -10.441406 C 6.910156 -10.042969 7.667969 -9.863281 8.53125 -9.863281 C 9.253906 -9.863281 10.007812 -10.007812 10.765625 -10.332031 C 11.089844 -10.441406 11.230469 -10.65625 11.230469 -10.980469 C 11.230469 -11.015625 11.195312 -11.125 11.160156 -11.269531 C 11.050781 -11.554688 10.800781 -11.699219 10.476562 -11.699219 C 10.367188 -11.699219 10.261719 -11.699219 10.222656 -11.664062 C 9.648438 -11.410156 9.070312 -11.304688 8.53125 -11.304688 C 7.488281 -11.304688 6.695312 -11.734375 6.589844 -12.058594 C 6.589844 -12.167969 6.660156 -12.277344 6.660156 -12.457031 C 6.660156 -12.742188 6.550781 -13.03125 6.121094 -13.175781 C 5.722656 -13.285156 5.4375 -13.140625 5.257812 -12.742188 L 5.148438 -12.238281 C 4.933594 -10.765625 3.816406 -6.191406 3.238281 -6.300781 C 2.664062 -6.589844 1.871094 -9.289062 1.871094 -12.097656 C 1.871094 -12.707031 1.90625 -13.320312 1.980469 -13.894531 C 2.015625 -14.328125 1.726562 -14.722656 1.261719 -14.722656 C 0.863281 -14.722656 0.613281 -14.507812 0.539062 -14.113281 C 0.46875 -13.609375 0.433594 -12.996094 0.433594 -12.277344 C 0.433594 -9.179688 1.152344 -4.859375 3.277344 -4.859375 Z M 3.277344 -4.859375 "/></g></g></g><g fill="#004aad" fill-opacity="1"><g transform="translate(213.472188, 206.927696)"><g><path d="M 3.78125 -4.789062 C 6.121094 -4.789062 9 -6.121094 11.699219 -10.546875 C 11.773438 -10.65625 11.808594 -10.765625 11.808594 -10.90625 C 11.808594 -11.230469 11.699219 -11.410156 11.449219 -11.519531 C 11.339844 -11.59375 11.195312 -11.628906 11.089844 -11.628906 C 10.835938 -11.628906 10.621094 -11.519531 10.476562 -11.304688 C 9.214844 -9.179688 7.847656 -7.777344 6.40625 -6.949219 C 5.578125 -6.515625 4.609375 -6.226562 3.636719 -6.226562 C 2.304688 -6.226562 1.152344 -6.804688 1.152344 -8.351562 C 1.152344 -8.53125 1.1875 -8.710938 1.222656 -8.964844 C 3.636719 -9.144531 6.480469 -10.90625 6.480469 -12.816406 C 6.480469 -13.859375 5.6875 -14.6875 4.535156 -14.6875 C 3.816406 -14.6875 2.953125 -14.363281 2.050781 -13.5 C 0.648438 -12.167969 -0.253906 -10.117188 -0.253906 -8.351562 C -0.253906 -6.445312 0.863281 -4.789062 3.78125 -4.789062 Z M 1.726562 -10.511719 C 2.699219 -12.527344 3.886719 -13.246094 4.570312 -13.246094 C 4.824219 -13.246094 4.96875 -13.175781 5.003906 -12.996094 C 5.183594 -12.167969 3.492188 -10.800781 1.726562 -10.511719 Z M 1.726562 -10.511719 "/></g></g></g><g fill="#004aad" fill-opacity="1"><g transform="translate(223.480206, 206.927696)"><g><path d="M 17.136719 2.773438 C 17.53125 2.773438 17.820312 2.484375 17.855469 2.089844 C 18.179688 -4.429688 18.46875 -9.109375 18.46875 -13.03125 C 18.46875 -16.453125 18.289062 -19.222656 17.820312 -22.246094 C 17.425781 -24.695312 16.558594 -26.0625 15.265625 -26.0625 C 12.671875 -26.0625 10.980469 -19.90625 10.042969 -16.054688 C 9.863281 -15.300781 9.757812 -14.6875 9.648438 -14.183594 C 9.359375 -17.0625 8.855469 -22.210938 6.371094 -22.210938 C 3.671875 -22.210938 3.167969 -16.632812 1.441406 -7.128906 C 1.476562 -11.339844 1.871094 -17.0625 3.023438 -24.984375 C 3.058594 -25.378906 2.808594 -25.703125 2.410156 -25.8125 C 2.015625 -25.847656 1.691406 -25.597656 1.585938 -25.199219 C 0.828125 -19.621094 0 -12.527344 0 -6.191406 C 0 -4.210938 0.0703125 -2.375 0.253906 -0.648438 C 0.289062 -0.253906 0.539062 0 0.9375 0 C 1.332031 0 1.621094 -0.179688 1.65625 -0.574219 C 3.527344 -10.261719 4.933594 -20.773438 6.335938 -20.773438 C 7.882812 -20.773438 8.53125 -11.914062 8.53125 -7.019531 C 8.53125 -6.046875 8.496094 -5.257812 8.460938 -4.679688 C 8.425781 -4.246094 8.785156 -3.886719 9.214844 -3.886719 C 9.613281 -3.886719 9.863281 -4.140625 9.898438 -4.535156 C 11.050781 -18.179688 14.074219 -24.730469 15.265625 -24.625 C 15.515625 -24.589844 16.09375 -24.085938 16.414062 -22.03125 C 16.847656 -19.152344 17.0625 -16.488281 17.0625 -13.140625 C 17.0625 -9.394531 16.8125 -4.789062 16.414062 2.015625 C 16.378906 2.410156 16.667969 2.773438 17.0625 2.773438 Z M 17.136719 2.773438 "/></g></g></g></svg>