<svg xmlns="http://www.w3.org/2000/svg" xmlns:xlink="http://www.w3.org/1999/xlink" width="500" zoomAndPan="magnify" viewBox="0 0 375 374.999991" height="500" preserveAspectRatio="xMidYMid meet" version="1.0"><defs><g/><clipPath id="fd628764c6"><path d="M 170.648438 131.25 L 254.875 131.25 L 254.875 243.75 L 170.648438 243.75 Z M 170.648438 131.25 " clip-rule="nonzero"/></clipPath><clipPath id="e127a5e7a4"><path d="M 58 283.546875 L 150 283.546875 L 150 300.796875 L 58 300.796875 Z M 58 283.546875 " clip-rule="nonzero"/></clipPath><clipPath id="b257547af1"><path d="M 135.988281 288.953125 C 133.296875 291.019531 131.351562 292.511719 127.007812 292.511719 C 122.667969 292.511719 120.722656 291.015625 118.03125 288.953125 C 114.976562 286.609375 111.179688 283.695312 104.035156 283.695312 C 96.890625 283.695312 93.09375 286.609375 90.039062 288.953125 C 87.347656 291.019531 85.40625 292.511719 81.0625 292.511719 C 76.71875 292.511719 74.773438 291.015625 72.082031 288.953125 C 69.03125 286.609375 65.234375 283.695312 58.089844 283.695312 L 58.089844 291.832031 C 62.433594 291.832031 64.378906 293.328125 67.070312 295.390625 C 70.121094 297.734375 73.921875 300.648438 81.0625 300.648438 C 88.207031 300.648438 92.007812 297.734375 95.058594 295.390625 C 97.75 293.324219 99.691406 291.832031 104.039062 291.832031 C 108.378906 291.832031 110.328125 293.328125 113.019531 295.390625 C 116.070312 297.734375 119.871094 300.648438 127.011719 300.648438 C 134.15625 300.648438 137.957031 297.734375 141.007812 295.390625 C 143.699219 293.324219 145.644531 291.832031 149.988281 291.832031 L 149.988281 283.695312 C 142.839844 283.695312 139.039062 286.609375 135.988281 288.953125 Z M 135.988281 288.953125 " clip-rule="nonzero"/></clipPath><linearGradient x1="4.299948" gradientTransform="matrix(0.0347622, 0, 0, 0.0345, 57.94044, 283.546931)" y1="250" x2="2647.899737" gradientUnits="userSpaceOnUse" y2="250" id="9e160cccd0"><stop stop-opacity="1" stop-color="rgb(0%, 99.998474%, 82.398987%)" offset="0"/><stop stop-opacity="1" stop-color="rgb(0.0534058%, 99.700928%, 82.467651%)" offset="0.00390625"/><stop stop-opacity="1" stop-color="rgb(0.106812%, 99.403381%, 82.536316%)" offset="0.0078125"/><stop stop-opacity="1" stop-color="rgb(0.160217%, 99.105835%, 82.60498%)" offset="0.0117188"/><stop stop-opacity="1" stop-color="rgb(0.213623%, 98.808289%, 82.675171%)" offset="0.015625"/><stop stop-opacity="1" stop-color="rgb(0.267029%, 98.510742%, 82.743835%)" offset="0.0195312"/><stop stop-opacity="1" stop-color="rgb(0.320435%, 98.214722%, 82.8125%)" offset="0.0234375"/><stop stop-opacity="1" stop-color="rgb(0.37384%, 97.917175%, 82.881165%)" offset="0.0273438"/><stop stop-opacity="1" stop-color="rgb(0.427246%, 97.619629%, 82.949829%)" offset="0.03125"/><stop stop-opacity="1" stop-color="rgb(0.480652%, 97.322083%, 83.018494%)" offset="0.0351562"/><stop stop-opacity="1" stop-color="rgb(0.534058%, 97.024536%, 83.087158%)" offset="0.0390625"/><stop stop-opacity="1" stop-color="rgb(0.587463%, 96.72699%, 83.155823%)" offset="0.0429688"/><stop stop-opacity="1" stop-color="rgb(0.642395%, 96.430969%, 83.224487%)" offset="0.046875"/><stop stop-opacity="1" stop-color="rgb(0.695801%, 96.133423%, 83.293152%)" offset="0.0507813"/><stop stop-opacity="1" stop-color="rgb(0.749207%, 95.835876%, 83.361816%)" offset="0.0546875"/><stop stop-opacity="1" stop-color="rgb(0.802612%, 95.53833%, 83.430481%)" offset="0.0585938"/><stop stop-opacity="1" stop-color="rgb(0.856018%, 95.24231%, 83.499146%)" offset="0.0625"/><stop stop-opacity="1" stop-color="rgb(0.909424%, 94.944763%, 83.56781%)" offset="0.0664062"/><stop stop-opacity="1" stop-color="rgb(0.96283%, 94.647217%, 83.636475%)" offset="0.0703125"/><stop stop-opacity="1" stop-color="rgb(1.016235%, 94.34967%, 83.705139%)" offset="0.0742188"/><stop stop-opacity="1" stop-color="rgb(1.069641%, 94.052124%, 83.773804%)" offset="0.078125"/><stop stop-opacity="1" stop-color="rgb(1.123047%, 93.754578%, 83.842468%)" offset="0.0820312"/><stop stop-opacity="1" stop-color="rgb(1.176453%, 93.458557%, 83.912659%)" offset="0.0859375"/><stop stop-opacity="1" stop-color="rgb(1.229858%, 93.161011%, 83.981323%)" offset="0.0898437"/><stop stop-opacity="1" stop-color="rgb(1.283264%, 92.863464%, 84.049988%)" offset="0.09375"/><stop stop-opacity="1" stop-color="rgb(1.33667%, 92.565918%, 84.118652%)" offset="0.0976562"/><stop stop-opacity="1" stop-color="rgb(1.391602%, 92.268372%, 84.187317%)" offset="0.101562"/><stop stop-opacity="1" stop-color="rgb(1.445007%, 91.970825%, 84.255981%)" offset="0.105469"/><stop stop-opacity="1" stop-color="rgb(1.498413%, 91.674805%, 84.324646%)" offset="0.109375"/><stop stop-opacity="1" stop-color="rgb(1.551819%, 91.377258%, 84.393311%)" offset="0.113281"/><stop stop-opacity="1" stop-color="rgb(1.605225%, 91.079712%, 84.461975%)" offset="0.117187"/><stop stop-opacity="1" stop-color="rgb(1.65863%, 90.782166%, 84.53064%)" offset="0.121094"/><stop stop-opacity="1" stop-color="rgb(1.712036%, 90.486145%, 84.599304%)" offset="0.125"/><stop stop-opacity="1" stop-color="rgb(1.765442%, 90.188599%, 84.667969%)" offset="0.128906"/><stop stop-opacity="1" stop-color="rgb(1.818848%, 89.891052%, 84.736633%)" offset="0.132812"/><stop stop-opacity="1" stop-color="rgb(1.872253%, 89.593506%, 84.805298%)" offset="0.136719"/><stop stop-opacity="1" stop-color="rgb(1.925659%, 89.295959%, 84.873962%)" offset="0.140625"/><stop stop-opacity="1" stop-color="rgb(1.979065%, 88.998413%, 84.942627%)" offset="0.144531"/><stop stop-opacity="1" stop-color="rgb(2.032471%, 88.702393%, 85.011292%)" offset="0.148437"/><stop stop-opacity="1" stop-color="rgb(2.085876%, 88.404846%, 85.079956%)" offset="0.152344"/><stop stop-opacity="1" stop-color="rgb(2.140808%, 88.1073%, 85.150146%)" offset="0.15625"/><stop stop-opacity="1" stop-color="rgb(2.194214%, 87.809753%, 85.218811%)" offset="0.160156"/><stop stop-opacity="1" stop-color="rgb(2.24762%, 87.512207%, 85.287476%)" offset="0.164062"/><stop stop-opacity="1" stop-color="rgb(2.301025%, 87.214661%, 85.35614%)" offset="0.167969"/><stop stop-opacity="1" stop-color="rgb(2.354431%, 86.91864%, 85.424805%)" offset="0.171875"/><stop stop-opacity="1" stop-color="rgb(2.407837%, 86.621094%, 85.493469%)" offset="0.175781"/><stop stop-opacity="1" stop-color="rgb(2.461243%, 86.323547%, 85.562134%)" offset="0.179687"/><stop stop-opacity="1" stop-color="rgb(2.514648%, 86.026001%, 85.630798%)" offset="0.183594"/><stop stop-opacity="1" stop-color="rgb(2.568054%, 85.728455%, 85.699463%)" offset="0.1875"/><stop stop-opacity="1" stop-color="rgb(2.62146%, 85.430908%, 85.768127%)" offset="0.191406"/><stop stop-opacity="1" stop-color="rgb(2.674866%, 85.134888%, 85.836792%)" offset="0.195312"/><stop stop-opacity="1" stop-color="rgb(2.728271%, 84.837341%, 85.905457%)" offset="0.199219"/><stop stop-opacity="1" stop-color="rgb(2.781677%, 84.539795%, 85.974121%)" offset="0.203125"/><stop stop-opacity="1" stop-color="rgb(2.835083%, 84.242249%, 86.042786%)" offset="0.207031"/><stop stop-opacity="1" stop-color="rgb(2.890015%, 83.946228%, 86.11145%)" offset="0.210938"/><stop stop-opacity="1" stop-color="rgb(2.94342%, 83.648682%, 86.180115%)" offset="0.214844"/><stop stop-opacity="1" stop-color="rgb(2.996826%, 83.351135%, 86.248779%)" offset="0.21875"/><stop stop-opacity="1" stop-color="rgb(3.050232%, 83.053589%, 86.317444%)" offset="0.222656"/><stop stop-opacity="1" stop-color="rgb(3.103638%, 82.756042%, 86.387634%)" offset="0.226562"/><stop stop-opacity="1" stop-color="rgb(3.157043%, 82.458496%, 86.456299%)" offset="0.230469"/><stop stop-opacity="1" stop-color="rgb(3.210449%, 82.162476%, 86.524963%)" offset="0.234375"/><stop stop-opacity="1" stop-color="rgb(3.263855%, 81.864929%, 86.593628%)" offset="0.238281"/><stop stop-opacity="1" stop-color="rgb(3.317261%, 81.567383%, 86.662292%)" offset="0.242187"/><stop stop-opacity="1" stop-color="rgb(3.370667%, 81.269836%, 86.730957%)" offset="0.246094"/><stop stop-opacity="1" stop-color="rgb(3.424072%, 80.97229%, 86.799622%)" offset="0.25"/><stop stop-opacity="1" stop-color="rgb(3.477478%, 80.674744%, 86.868286%)" offset="0.253906"/><stop stop-opacity="1" stop-color="rgb(3.530884%, 80.378723%, 86.936951%)" offset="0.257812"/><stop stop-opacity="1" stop-color="rgb(3.58429%, 80.081177%, 87.005615%)" offset="0.261719"/><stop stop-opacity="1" stop-color="rgb(3.639221%, 79.78363%, 87.07428%)" offset="0.265625"/><stop stop-opacity="1" stop-color="rgb(3.692627%, 79.486084%, 87.142944%)" offset="0.269531"/><stop stop-opacity="1" stop-color="rgb(3.746033%, 79.190063%, 87.211609%)" offset="0.273438"/><stop stop-opacity="1" stop-color="rgb(3.799438%, 78.892517%, 87.280273%)" offset="0.277344"/><stop stop-opacity="1" stop-color="rgb(3.852844%, 78.594971%, 87.348938%)" offset="0.28125"/><stop stop-opacity="1" stop-color="rgb(3.90625%, 78.297424%, 87.417603%)" offset="0.285156"/><stop stop-opacity="1" stop-color="rgb(3.959656%, 77.999878%, 87.487793%)" offset="0.289062"/><stop stop-opacity="1" stop-color="rgb(4.013062%, 77.702332%, 87.556458%)" offset="0.292969"/><stop stop-opacity="1" stop-color="rgb(4.066467%, 77.406311%, 87.625122%)" offset="0.296875"/><stop stop-opacity="1" stop-color="rgb(4.119873%, 77.108765%, 87.693787%)" offset="0.300781"/><stop stop-opacity="1" stop-color="rgb(4.173279%, 76.811218%, 87.762451%)" offset="0.304688"/><stop stop-opacity="1" stop-color="rgb(4.226685%, 76.513672%, 87.831116%)" offset="0.308594"/><stop stop-opacity="1" stop-color="rgb(4.28009%, 76.216125%, 87.89978%)" offset="0.3125"/><stop stop-opacity="1" stop-color="rgb(4.333496%, 75.918579%, 87.968445%)" offset="0.316406"/><stop stop-opacity="1" stop-color="rgb(4.388428%, 75.622559%, 88.037109%)" offset="0.320312"/><stop stop-opacity="1" stop-color="rgb(4.441833%, 75.325012%, 88.105774%)" offset="0.324219"/><stop stop-opacity="1" stop-color="rgb(4.495239%, 75.027466%, 88.174438%)" offset="0.328125"/><stop stop-opacity="1" stop-color="rgb(4.548645%, 74.729919%, 88.243103%)" offset="0.332031"/><stop stop-opacity="1" stop-color="rgb(4.602051%, 74.432373%, 88.311768%)" offset="0.335937"/><stop stop-opacity="1" stop-color="rgb(4.655457%, 74.134827%, 88.380432%)" offset="0.339844"/><stop stop-opacity="1" stop-color="rgb(4.708862%, 73.838806%, 88.449097%)" offset="0.34375"/><stop stop-opacity="1" stop-color="rgb(4.762268%, 73.54126%, 88.517761%)" offset="0.347656"/><stop stop-opacity="1" stop-color="rgb(4.815674%, 73.243713%, 88.586426%)" offset="0.351562"/><stop stop-opacity="1" stop-color="rgb(4.86908%, 72.946167%, 88.65509%)" offset="0.355469"/><stop stop-opacity="1" stop-color="rgb(4.922485%, 72.650146%, 88.725281%)" offset="0.359375"/><stop stop-opacity="1" stop-color="rgb(4.975891%, 72.3526%, 88.793945%)" offset="0.363281"/><stop stop-opacity="1" stop-color="rgb(5.029297%, 72.055054%, 88.86261%)" offset="0.367187"/><stop stop-opacity="1" stop-color="rgb(5.082703%, 71.757507%, 88.931274%)" offset="0.371094"/><stop stop-opacity="1" stop-color="rgb(5.137634%, 71.459961%, 88.999939%)" offset="0.375"/><stop stop-opacity="1" stop-color="rgb(5.19104%, 71.162415%, 89.068604%)" offset="0.378906"/><stop stop-opacity="1" stop-color="rgb(5.244446%, 70.866394%, 89.137268%)" offset="0.382812"/><stop stop-opacity="1" stop-color="rgb(5.297852%, 70.568848%, 89.205933%)" offset="0.386719"/><stop stop-opacity="1" stop-color="rgb(5.351257%, 70.271301%, 89.274597%)" offset="0.390625"/><stop stop-opacity="1" stop-color="rgb(5.404663%, 69.973755%, 89.343262%)" offset="0.394531"/><stop stop-opacity="1" stop-color="rgb(5.458069%, 69.676208%, 89.411926%)" offset="0.398438"/><stop stop-opacity="1" stop-color="rgb(5.511475%, 69.378662%, 89.480591%)" offset="0.402344"/><stop stop-opacity="1" stop-color="rgb(5.56488%, 69.082642%, 89.549255%)" offset="0.40625"/><stop stop-opacity="1" stop-color="rgb(5.618286%, 68.785095%, 89.61792%)" offset="0.410156"/><stop stop-opacity="1" stop-color="rgb(5.671692%, 68.487549%, 89.686584%)" offset="0.414062"/><stop stop-opacity="1" stop-color="rgb(5.725098%, 68.190002%, 89.755249%)" offset="0.417969"/><stop stop-opacity="1" stop-color="rgb(5.778503%, 67.893982%, 89.823914%)" offset="0.421875"/><stop stop-opacity="1" stop-color="rgb(5.831909%, 67.596436%, 89.892578%)" offset="0.425781"/><stop stop-opacity="1" stop-color="rgb(5.886841%, 67.298889%, 89.962769%)" offset="0.429688"/><stop stop-opacity="1" stop-color="rgb(5.940247%, 67.001343%, 90.031433%)" offset="0.433594"/><stop stop-opacity="1" stop-color="rgb(5.993652%, 66.703796%, 90.100098%)" offset="0.4375"/><stop stop-opacity="1" stop-color="rgb(6.047058%, 66.40625%, 90.168762%)" offset="0.441406"/><stop stop-opacity="1" stop-color="rgb(6.100464%, 66.110229%, 90.237427%)" offset="0.445312"/><stop stop-opacity="1" stop-color="rgb(6.15387%, 65.812683%, 90.306091%)" offset="0.449219"/><stop stop-opacity="1" stop-color="rgb(6.207275%, 65.515137%, 90.374756%)" offset="0.453125"/><stop stop-opacity="1" stop-color="rgb(6.260681%, 65.21759%, 90.44342%)" offset="0.457031"/><stop stop-opacity="1" stop-color="rgb(6.314087%, 64.920044%, 90.512085%)" offset="0.460937"/><stop stop-opacity="1" stop-color="rgb(6.367493%, 64.622498%, 90.58075%)" offset="0.464844"/><stop stop-opacity="1" stop-color="rgb(6.420898%, 64.326477%, 90.649414%)" offset="0.46875"/><stop stop-opacity="1" stop-color="rgb(6.474304%, 64.028931%, 90.718079%)" offset="0.472656"/><stop stop-opacity="1" stop-color="rgb(6.52771%, 63.731384%, 90.786743%)" offset="0.476562"/><stop stop-opacity="1" stop-color="rgb(6.581116%, 63.433838%, 90.855408%)" offset="0.480469"/><stop stop-opacity="1" stop-color="rgb(6.636047%, 63.136292%, 90.924072%)" offset="0.484375"/><stop stop-opacity="1" stop-color="rgb(6.689453%, 62.838745%, 90.992737%)" offset="0.488281"/><stop stop-opacity="1" stop-color="rgb(6.742859%, 62.542725%, 91.061401%)" offset="0.492187"/><stop stop-opacity="1" stop-color="rgb(6.796265%, 62.245178%, 91.130066%)" offset="0.496094"/><stop stop-opacity="1" stop-color="rgb(6.84967%, 61.947632%, 91.200256%)" offset="0.5"/><stop stop-opacity="1" stop-color="rgb(6.903076%, 61.650085%, 91.268921%)" offset="0.503906"/><stop stop-opacity="1" stop-color="rgb(6.956482%, 61.354065%, 91.337585%)" offset="0.507812"/><stop stop-opacity="1" stop-color="rgb(7.009888%, 61.056519%, 91.40625%)" offset="0.511719"/><stop stop-opacity="1" stop-color="rgb(7.063293%, 60.758972%, 91.474915%)" offset="0.515625"/><stop stop-opacity="1" stop-color="rgb(7.116699%, 60.461426%, 91.543579%)" offset="0.519531"/><stop stop-opacity="1" stop-color="rgb(7.170105%, 60.163879%, 91.612244%)" offset="0.523437"/><stop stop-opacity="1" stop-color="rgb(7.223511%, 59.866333%, 91.680908%)" offset="0.527344"/><stop stop-opacity="1" stop-color="rgb(7.276917%, 59.570312%, 91.749573%)" offset="0.53125"/><stop stop-opacity="1" stop-color="rgb(7.330322%, 59.272766%, 91.818237%)" offset="0.535156"/><stop stop-opacity="1" stop-color="rgb(7.385254%, 58.97522%, 91.886902%)" offset="0.539062"/><stop stop-opacity="1" stop-color="rgb(7.43866%, 58.677673%, 91.955566%)" offset="0.542969"/><stop stop-opacity="1" stop-color="rgb(7.492065%, 58.380127%, 92.024231%)" offset="0.546875"/><stop stop-opacity="1" stop-color="rgb(7.545471%, 58.082581%, 92.092896%)" offset="0.550781"/><stop stop-opacity="1" stop-color="rgb(7.598877%, 57.78656%, 92.16156%)" offset="0.554687"/><stop stop-opacity="1" stop-color="rgb(7.652283%, 57.489014%, 92.230225%)" offset="0.558594"/><stop stop-opacity="1" stop-color="rgb(7.705688%, 57.191467%, 92.298889%)" offset="0.5625"/><stop stop-opacity="1" stop-color="rgb(7.759094%, 56.893921%, 92.367554%)" offset="0.566406"/><stop stop-opacity="1" stop-color="rgb(7.8125%, 56.596375%, 92.437744%)" offset="0.570312"/><stop stop-opacity="1" stop-color="rgb(7.865906%, 56.298828%, 92.506409%)" offset="0.574219"/><stop stop-opacity="1" stop-color="rgb(7.919312%, 56.002808%, 92.575073%)" offset="0.578125"/><stop stop-opacity="1" stop-color="rgb(7.972717%, 55.705261%, 92.643738%)" offset="0.582031"/><stop stop-opacity="1" stop-color="rgb(8.026123%, 55.407715%, 92.712402%)" offset="0.585937"/><stop stop-opacity="1" stop-color="rgb(8.079529%, 55.110168%, 92.781067%)" offset="0.589844"/><stop stop-opacity="1" stop-color="rgb(8.13446%, 54.814148%, 92.849731%)" offset="0.59375"/><stop stop-opacity="1" stop-color="rgb(8.187866%, 54.516602%, 92.918396%)" offset="0.597656"/><stop stop-opacity="1" stop-color="rgb(8.241272%, 54.219055%, 92.987061%)" offset="0.601562"/><stop stop-opacity="1" stop-color="rgb(8.294678%, 53.921509%, 93.055725%)" offset="0.605469"/><stop stop-opacity="1" stop-color="rgb(8.348083%, 53.623962%, 93.12439%)" offset="0.609375"/><stop stop-opacity="1" stop-color="rgb(8.401489%, 53.326416%, 93.193054%)" offset="0.613281"/><stop stop-opacity="1" stop-color="rgb(8.454895%, 53.030396%, 93.261719%)" offset="0.617187"/><stop stop-opacity="1" stop-color="rgb(8.508301%, 52.732849%, 93.330383%)" offset="0.621094"/><stop stop-opacity="1" stop-color="rgb(8.561707%, 52.435303%, 93.399048%)" offset="0.625"/><stop stop-opacity="1" stop-color="rgb(8.615112%, 52.137756%, 93.467712%)" offset="0.628906"/><stop stop-opacity="1" stop-color="rgb(8.668518%, 51.84021%, 93.536377%)" offset="0.632812"/><stop stop-opacity="1" stop-color="rgb(8.721924%, 51.542664%, 93.605042%)" offset="0.636719"/><stop stop-opacity="1" stop-color="rgb(8.77533%, 51.246643%, 93.675232%)" offset="0.640625"/><stop stop-opacity="1" stop-color="rgb(8.828735%, 50.949097%, 93.743896%)" offset="0.644531"/><stop stop-opacity="1" stop-color="rgb(8.883667%, 50.65155%, 93.812561%)" offset="0.648437"/><stop stop-opacity="1" stop-color="rgb(8.937073%, 50.354004%, 93.881226%)" offset="0.652344"/><stop stop-opacity="1" stop-color="rgb(8.990479%, 50.057983%, 93.94989%)" offset="0.65625"/><stop stop-opacity="1" stop-color="rgb(9.043884%, 49.760437%, 94.018555%)" offset="0.660156"/><stop stop-opacity="1" stop-color="rgb(9.09729%, 49.462891%, 94.087219%)" offset="0.664062"/><stop stop-opacity="1" stop-color="rgb(9.150696%, 49.165344%, 94.155884%)" offset="0.667969"/><stop stop-opacity="1" stop-color="rgb(9.204102%, 48.867798%, 94.224548%)" offset="0.671875"/><stop stop-opacity="1" stop-color="rgb(9.257507%, 48.570251%, 94.293213%)" offset="0.675781"/><stop stop-opacity="1" stop-color="rgb(9.310913%, 48.274231%, 94.361877%)" offset="0.679687"/><stop stop-opacity="1" stop-color="rgb(9.364319%, 47.976685%, 94.430542%)" offset="0.683594"/><stop stop-opacity="1" stop-color="rgb(9.417725%, 47.679138%, 94.499207%)" offset="0.6875"/><stop stop-opacity="1" stop-color="rgb(9.47113%, 47.381592%, 94.567871%)" offset="0.691406"/><stop stop-opacity="1" stop-color="rgb(9.524536%, 47.084045%, 94.636536%)" offset="0.695312"/><stop stop-opacity="1" stop-color="rgb(9.577942%, 46.786499%, 94.7052%)" offset="0.699219"/><stop stop-opacity="1" stop-color="rgb(9.632874%, 46.490479%, 94.773865%)" offset="0.703125"/><stop stop-opacity="1" stop-color="rgb(9.686279%, 46.192932%, 94.842529%)" offset="0.707031"/><stop stop-opacity="1" stop-color="rgb(9.739685%, 45.895386%, 94.91272%)" offset="0.710937"/><stop stop-opacity="1" stop-color="rgb(9.793091%, 45.597839%, 94.981384%)" offset="0.714844"/><stop stop-opacity="1" stop-color="rgb(9.846497%, 45.300293%, 95.050049%)" offset="0.71875"/><stop stop-opacity="1" stop-color="rgb(9.899902%, 45.002747%, 95.118713%)" offset="0.722656"/><stop stop-opacity="1" stop-color="rgb(9.953308%, 44.706726%, 95.187378%)" offset="0.726562"/><stop stop-opacity="1" stop-color="rgb(10.006714%, 44.40918%, 95.256042%)" offset="0.730469"/><stop stop-opacity="1" stop-color="rgb(10.06012%, 44.111633%, 95.324707%)" offset="0.734375"/><stop stop-opacity="1" stop-color="rgb(10.113525%, 43.814087%, 95.393372%)" offset="0.738281"/><stop stop-opacity="1" stop-color="rgb(10.166931%, 43.518066%, 95.462036%)" offset="0.742187"/><stop stop-opacity="1" stop-color="rgb(10.220337%, 43.22052%, 95.530701%)" offset="0.746094"/><stop stop-opacity="1" stop-color="rgb(10.273743%, 42.922974%, 95.599365%)" offset="0.75"/><stop stop-opacity="1" stop-color="rgb(10.327148%, 42.625427%, 95.66803%)" offset="0.753906"/><stop stop-opacity="1" stop-color="rgb(10.38208%, 42.327881%, 95.736694%)" offset="0.757812"/><stop stop-opacity="1" stop-color="rgb(10.435486%, 42.030334%, 95.805359%)" offset="0.761719"/><stop stop-opacity="1" stop-color="rgb(10.488892%, 41.734314%, 95.874023%)" offset="0.765625"/><stop stop-opacity="1" stop-color="rgb(10.542297%, 41.436768%, 95.942688%)" offset="0.769531"/><stop stop-opacity="1" stop-color="rgb(10.595703%, 41.139221%, 96.011353%)" offset="0.773438"/><stop stop-opacity="1" stop-color="rgb(10.649109%, 40.841675%, 96.080017%)" offset="0.777344"/><stop stop-opacity="1" stop-color="rgb(10.702515%, 40.544128%, 96.150208%)" offset="0.78125"/><stop stop-opacity="1" stop-color="rgb(10.75592%, 40.246582%, 96.218872%)" offset="0.785156"/><stop stop-opacity="1" stop-color="rgb(10.809326%, 39.950562%, 96.287537%)" offset="0.789062"/><stop stop-opacity="1" stop-color="rgb(10.862732%, 39.653015%, 96.356201%)" offset="0.792969"/><stop stop-opacity="1" stop-color="rgb(10.916138%, 39.355469%, 96.424866%)" offset="0.796875"/><stop stop-opacity="1" stop-color="rgb(10.969543%, 39.057922%, 96.49353%)" offset="0.800781"/><stop stop-opacity="1" stop-color="rgb(11.022949%, 38.761902%, 96.562195%)" offset="0.804688"/><stop stop-opacity="1" stop-color="rgb(11.076355%, 38.464355%, 96.630859%)" offset="0.808594"/><stop stop-opacity="1" stop-color="rgb(11.131287%, 38.166809%, 96.699524%)" offset="0.8125"/><stop stop-opacity="1" stop-color="rgb(11.184692%, 37.869263%, 96.768188%)" offset="0.816406"/><stop stop-opacity="1" stop-color="rgb(11.238098%, 37.571716%, 96.836853%)" offset="0.820312"/><stop stop-opacity="1" stop-color="rgb(11.291504%, 37.27417%, 96.905518%)" offset="0.824219"/><stop stop-opacity="1" stop-color="rgb(11.34491%, 36.978149%, 96.974182%)" offset="0.828125"/><stop stop-opacity="1" stop-color="rgb(11.398315%, 36.680603%, 97.042847%)" offset="0.832031"/><stop stop-opacity="1" stop-color="rgb(11.451721%, 36.383057%, 97.111511%)" offset="0.835938"/><stop stop-opacity="1" stop-color="rgb(11.505127%, 36.08551%, 97.180176%)" offset="0.839844"/><stop stop-opacity="1" stop-color="rgb(11.558533%, 35.787964%, 97.24884%)" offset="0.84375"/><stop stop-opacity="1" stop-color="rgb(11.611938%, 35.490417%, 97.317505%)" offset="0.847656"/><stop stop-opacity="1" stop-color="rgb(11.665344%, 35.194397%, 97.387695%)" offset="0.851562"/><stop stop-opacity="1" stop-color="rgb(11.71875%, 34.896851%, 97.45636%)" offset="0.855469"/><stop stop-opacity="1" stop-color="rgb(11.773682%, 34.599304%, 97.525024%)" offset="0.859375"/><stop stop-opacity="1" stop-color="rgb(11.827087%, 34.301758%, 97.593689%)" offset="0.863281"/><stop stop-opacity="1" stop-color="rgb(11.880493%, 34.004211%, 97.662354%)" offset="0.867188"/><stop stop-opacity="1" stop-color="rgb(11.933899%, 33.706665%, 97.731018%)" offset="0.871094"/><stop stop-opacity="1" stop-color="rgb(11.987305%, 33.410645%, 97.799683%)" offset="0.875"/><stop stop-opacity="1" stop-color="rgb(12.04071%, 33.113098%, 97.868347%)" offset="0.878906"/><stop stop-opacity="1" stop-color="rgb(12.094116%, 32.815552%, 97.937012%)" offset="0.882812"/><stop stop-opacity="1" stop-color="rgb(12.147522%, 32.518005%, 98.005676%)" offset="0.886719"/><stop stop-opacity="1" stop-color="rgb(12.200928%, 32.221985%, 98.074341%)" offset="0.890625"/><stop stop-opacity="1" stop-color="rgb(12.254333%, 31.924438%, 98.143005%)" offset="0.894531"/><stop stop-opacity="1" stop-color="rgb(12.307739%, 31.626892%, 98.21167%)" offset="0.898437"/><stop stop-opacity="1" stop-color="rgb(12.361145%, 31.329346%, 98.280334%)" offset="0.902344"/><stop stop-opacity="1" stop-color="rgb(12.414551%, 31.031799%, 98.348999%)" offset="0.90625"/><stop stop-opacity="1" stop-color="rgb(12.467957%, 30.734253%, 98.417664%)" offset="0.910156"/><stop stop-opacity="1" stop-color="rgb(12.522888%, 30.438232%, 98.486328%)" offset="0.914062"/><stop stop-opacity="1" stop-color="rgb(12.576294%, 30.140686%, 98.554993%)" offset="0.917969"/><stop stop-opacity="1" stop-color="rgb(12.6297%, 29.84314%, 98.625183%)" offset="0.921875"/><stop stop-opacity="1" stop-color="rgb(12.683105%, 29.545593%, 98.693848%)" offset="0.925781"/><stop stop-opacity="1" stop-color="rgb(12.736511%, 29.248047%, 98.762512%)" offset="0.929687"/><stop stop-opacity="1" stop-color="rgb(12.789917%, 28.9505%, 98.831177%)" offset="0.933594"/><stop stop-opacity="1" stop-color="rgb(12.843323%, 28.65448%, 98.899841%)" offset="0.9375"/><stop stop-opacity="1" stop-color="rgb(12.896729%, 28.356934%, 98.968506%)" offset="0.941406"/><stop stop-opacity="1" stop-color="rgb(12.950134%, 28.059387%, 99.03717%)" offset="0.945312"/><stop stop-opacity="1" stop-color="rgb(13.00354%, 27.761841%, 99.105835%)" offset="0.949219"/><stop stop-opacity="1" stop-color="rgb(13.056946%, 27.464294%, 99.1745%)" offset="0.953125"/><stop stop-opacity="1" stop-color="rgb(13.110352%, 27.166748%, 99.243164%)" offset="0.957031"/><stop stop-opacity="1" stop-color="rgb(13.163757%, 26.870728%, 99.311829%)" offset="0.960937"/><stop stop-opacity="1" stop-color="rgb(13.217163%, 26.573181%, 99.380493%)" offset="0.964844"/><stop stop-opacity="1" stop-color="rgb(13.272095%, 26.275635%, 99.449158%)" offset="0.96875"/><stop stop-opacity="1" stop-color="rgb(13.3255%, 25.978088%, 99.517822%)" offset="0.972656"/><stop stop-opacity="1" stop-color="rgb(13.378906%, 25.682068%, 99.586487%)" offset="0.976562"/><stop stop-opacity="1" stop-color="rgb(13.432312%, 25.384521%, 99.655151%)" offset="0.980469"/><stop stop-opacity="1" stop-color="rgb(13.485718%, 25.086975%, 99.723816%)" offset="0.984375"/><stop stop-opacity="1" stop-color="rgb(13.539124%, 24.789429%, 99.79248%)" offset="0.988281"/><stop stop-opacity="1" stop-color="rgb(13.592529%, 24.491882%, 99.862671%)" offset="0.992187"/><stop stop-opacity="1" stop-color="rgb(13.645935%, 24.195862%, 99.931335%)" offset="0.996094"/><stop stop-opacity="1" stop-color="rgb(13.699341%, 23.899841%, 100%)" offset="1"/></linearGradient><clipPath id="fbbfad3d23"><path d="M 57.914062 283.546875 L 150.164062 283.546875 L 150.164062 300.796875 L 57.914062 300.796875 Z M 57.914062 283.546875 " clip-rule="nonzero"/></clipPath><clipPath id="bc52372101"><path d="M 112.5 147.714844 L 262.5 147.714844 L 262.5 227.214844 L 112.5 227.214844 Z M 112.5 147.714844 " clip-rule="nonzero"/></clipPath></defs><g clip-path="url(#fd628764c6)"><path fill="#ffffff" d="M 170.648438 131.25 L 254.875 131.25 L 254.875 243.75 L 170.648438 243.75 Z M 170.648438 131.25 " fill-opacity="1" fill-rule="nonzero"/></g><g clip-path="url(#e127a5e7a4)"><g clip-path="url(#b257547af1)"><path fill="url(#9e160cccd0)" d="M 58.089844 283.695312 L 58.089844 300.648438 L 149.988281 300.648438 L 149.988281 283.695312 Z M 58.089844 283.695312 " fill-rule="nonzero"/></g></g><g clip-path="url(#fbbfad3d23)"><path fill="#000000" d="M 127.007812 300.796875 C 119.8125 300.796875 115.992188 297.863281 112.925781 295.507812 C 110.253906 293.457031 108.328125 291.980469 104.035156 291.980469 C 99.742188 291.980469 97.816406 293.457031 95.144531 295.503906 C 92.078125 297.863281 88.257812 300.796875 81.0625 300.796875 C 73.863281 300.796875 70.042969 297.863281 66.976562 295.507812 C 64.308594 293.457031 62.378906 291.980469 58.089844 291.980469 C 58.007812 291.980469 57.941406 291.914062 57.941406 291.832031 L 57.941406 283.695312 C 57.941406 283.613281 58.007812 283.546875 58.089844 283.546875 C 65.285156 283.546875 69.105469 286.480469 72.175781 288.835938 C 74.84375 290.886719 76.769531 292.363281 81.0625 292.363281 C 85.355469 292.363281 87.285156 290.882812 89.953125 288.835938 C 93.019531 286.480469 96.839844 283.546875 104.035156 283.546875 C 111.230469 283.546875 115.050781 286.480469 118.121094 288.835938 C 120.789062 290.886719 122.714844 292.363281 127.007812 292.363281 C 131.300781 292.363281 133.226562 290.886719 135.898438 288.839844 C 138.96875 286.480469 142.792969 283.546875 149.988281 283.546875 C 150.070312 283.546875 150.136719 283.613281 150.136719 283.695312 L 150.136719 291.832031 C 150.136719 291.917969 150.070312 291.980469 149.988281 291.980469 C 145.695312 291.980469 143.769531 293.460938 141.097656 295.507812 C 138.027344 297.863281 134.207031 300.796875 127.007812 300.796875 Z M 104.035156 291.683594 C 108.429688 291.683594 110.390625 293.191406 113.105469 295.273438 C 116.140625 297.601562 119.917969 300.503906 127.007812 300.503906 C 134.101562 300.503906 137.878906 297.605469 140.914062 295.277344 C 143.597656 293.21875 145.542969 291.722656 149.835938 291.6875 L 149.835938 283.839844 C 142.832031 283.882812 139.089844 286.753906 136.074219 289.066406 C 133.359375 291.152344 131.398438 292.65625 127.007812 292.65625 C 122.613281 292.65625 120.652344 291.152344 117.9375 289.066406 C 114.902344 286.738281 111.125 283.835938 104.03125 283.835938 C 96.9375 283.835938 93.160156 286.734375 90.125 289.0625 C 87.410156 291.148438 85.453125 292.652344 81.058594 292.652344 C 76.664062 292.652344 74.703125 291.148438 71.988281 289.0625 C 68.980469 286.753906 65.234375 283.882812 58.234375 283.839844 L 58.234375 291.683594 C 62.527344 291.71875 64.472656 293.214844 67.15625 295.273438 C 70.191406 297.601562 73.964844 300.5 81.0625 300.5 C 88.15625 300.5 91.929688 297.601562 94.964844 295.273438 C 97.679688 293.191406 99.640625 291.683594 104.035156 291.683594 Z M 104.035156 291.683594 " fill-opacity="1" fill-rule="nonzero"/></g><path fill="#235db4" d="M 67.199219 102.292969 C 66.421875 101.53125 65.671875 100.742188 64.953125 99.921875 C 41.039062 71.816406 58.78125 32.722656 91.015625 34.269531 C 47.648438 29.308594 29.066406 82.171875 67.199219 102.292969 Z M 113.375 24.566406 C 124.9375 33.976562 129.570312 51.382812 122.925781 64.171875 C 127.769531 60.335938 130.976562 53.675781 130.976562 46.089844 C 130.980469 34.226562 123.097656 24.550781 113.375 24.566406 Z M 113.375 24.566406 " fill-opacity="1" fill-rule="nonzero"/><path fill="#004aad" d="M 103.769531 36.609375 C 113.296875 45.082031 116.242188 59.921875 107.074219 68.085938 C 125.910156 62.417969 120.847656 26.578125 92.234375 24.167969 C 86.597656 23.691406 77.5 25.585938 73.351562 29.40625 C 87.210938 26.894531 94.941406 28.753906 103.769531 36.609375 Z M 39.84375 22.203125 C 47.910156 26.574219 45.644531 35.0625 40.71875 44.367188 C 36.109375 53.074219 36.078125 65.96875 38.863281 74.808594 C 38.59375 66.308594 39.203125 60.183594 42.519531 52.863281 C 46.988281 42.636719 53.3125 40.390625 53.542969 33.371094 C 53.902344 25.878906 46.800781 19.542969 39.84375 22.203125 Z M 133.535156 102.609375 C 123.414062 110.597656 111.644531 115.214844 99.917969 115.15625 C 90.902344 115.21875 81.082031 112.4375 73.351562 107.410156 C 86.777344 127.085938 122.175781 131.234375 142 107.410156 C 150.152344 97.613281 152.695312 93.035156 163.175781 86.703125 C 153.046875 85.460938 143.359375 94.226562 133.535156 102.609375 Z M 133.535156 102.609375 " fill-opacity="1" fill-rule="nonzero"/><path fill="#8faad6" d="M 98.046875 87.347656 C 84.433594 87.171875 73.476562 72.074219 80.050781 58.953125 C 84.941406 49.355469 102.046875 45.566406 106.96875 56.472656 C 108.125 42.917969 86.558594 32.789062 69.234375 50.746094 C 53.589844 66.957031 62.695312 96.851562 85.765625 104.972656 C 110.546875 113.425781 130.96875 98.820312 146.535156 77.6875 C 157.246094 64.40625 164.03125 48.28125 179 39.445312 C 149.664062 39.332031 126.121094 89.328125 98.046875 87.347656 Z M 67.234375 14.238281 C 62.019531 9.746094 54.398438 14.199219 55.265625 18.273438 C 61.4375 15.707031 66.054688 23.972656 59.605469 33.476562 C 70.199219 28.835938 72.066406 18.398438 67.234375 14.238281 Z M 67.234375 14.238281 " fill-opacity="1" fill-rule="nonzero"/><g clip-path="url(#bc52372101)"><path fill="#38b6ff" d="M 262.351562 169.050781 C 262.285156 168.757812 262.253906 168.453125 262.195312 168.15625 C 262.089844 167.660156 261.972656 167.167969 261.859375 166.671875 C 261.824219 166.519531 261.785156 166.363281 261.742188 166.214844 C 261.679688 165.984375 261.660156 165.722656 261.539062 165.53125 C 261.332031 165.199219 261.179688 164.851562 261.0625 164.484375 C 261.039062 164.402344 261.042969 164.289062 260.988281 164.246094 C 260.773438 164.078125 260.570312 163.921875 260.617188 163.605469 C 260.621094 163.585938 260.5625 163.5625 260.542969 163.53125 C 260.378906 163.289062 260.074219 163.140625 260.078125 162.789062 C 260.078125 162.722656 259.964844 162.59375 259.925781 162.601562 C 259.636719 162.667969 259.640625 162.414062 259.527344 162.277344 C 259.304688 162.007812 259.265625 161.566406 258.816406 161.503906 C 258.796875 161.503906 258.761719 161.476562 258.761719 161.460938 C 258.757812 161.109375 258.296875 161.164062 258.230469 160.863281 C 257.902344 160.660156 257.585938 160.4375 257.246094 160.253906 C 256.9375 160.085938 256.597656 159.980469 256.289062 159.8125 C 255.96875 159.636719 255.609375 159.644531 255.273438 159.53125 C 254.796875 159.371094 254.289062 159.304688 253.769531 159.363281 C 253.121094 159.4375 252.941406 159.5 252.507812 159.992188 C 252.484375 160.015625 252.453125 160.039062 252.417969 160.050781 C 252.058594 160.175781 251.902344 160.5 251.746094 160.796875 C 251.484375 161.285156 251.285156 161.808594 251 162.289062 C 250.875 162.503906 250.773438 162.738281 250.648438 162.988281 C 250.585938 162.949219 250.519531 162.914062 250.457031 162.875 C 250.199219 163.378906 249.917969 163.871094 249.625 164.347656 C 249.691406 164.457031 249.738281 164.570312 249.734375 164.710938 C 249.734375 164.808594 249.6875 164.90625 249.691406 165.003906 C 249.699219 165.4375 249.601562 165.820312 249.230469 166.089844 C 249.199219 166.109375 249.15625 166.148438 249.160156 166.167969 C 249.246094 166.445312 248.988281 166.4375 248.84375 166.527344 C 248.855469 166.59375 248.863281 166.652344 248.875 166.710938 C 248.617188 166.859375 248.617188 166.859375 248.46875 167.179688 C 248.453125 167.210938 248.429688 167.253906 248.398438 167.257812 C 248.234375 167.300781 248.214844 167.464844 248.125 167.570312 C 247.871094 167.871094 247.6875 168.253906 247.269531 168.355469 C 247.1875 168.484375 247.261719 168.734375 247.054688 168.707031 C 246.835938 168.675781 246.804688 168.839844 246.703125 168.933594 C 246.605469 169.019531 246.542969 169.160156 246.433594 169.214844 C 246.265625 169.292969 246.148438 169.378906 246.101562 169.570312 C 246.042969 169.796875 245.675781 169.742188 245.652344 170.023438 C 245.648438 170.035156 245.605469 170.054688 245.589844 170.050781 C 245.429688 170.011719 245.382812 170.121094 245.320312 170.230469 C 245.296875 170.269531 245.210938 170.269531 245.171875 170.304688 C 245.003906 170.457031 244.6875 170.441406 244.675781 170.753906 C 244.277344 170.644531 244.195312 171.089844 243.902344 171.152344 C 243.785156 171.175781 243.6875 171.292969 243.558594 171.382812 C 243.484375 171.355469 243.367188 171.285156 243.296875 171.460938 C 243.277344 171.507812 243.21875 171.558594 243.171875 171.574219 C 242.894531 171.660156 242.613281 171.734375 242.335938 171.816406 C 242.175781 171.859375 242.007812 171.867188 241.875 172.007812 C 241.808594 172.074219 241.640625 172.128906 241.574219 172.089844 C 241.339844 171.964844 241.144531 172.070312 240.9375 172.128906 C 240.878906 172.144531 240.785156 172.195312 240.769531 172.175781 C 240.585938 171.984375 240.304688 172.199219 240.144531 172.039062 C 239.949219 171.851562 239.761719 171.941406 239.558594 171.96875 C 239.5 171.976562 239.433594 171.910156 239.371094 171.882812 C 239.308594 171.851562 239.246094 171.820312 239.183594 171.792969 C 238.921875 172.40625 238.75 172.367188 238.285156 172.25 C 238.125 172.210938 237.953125 172.195312 237.789062 172.164062 C 237.539062 172.113281 237.273438 172.097656 237.042969 171.996094 C 236.5625 171.789062 236.105469 171.535156 235.640625 171.300781 C 235.621094 171.292969 235.613281 171.265625 235.597656 171.242188 C 235.632812 171.214844 235.675781 171.191406 235.753906 171.144531 C 235.613281 171.082031 235.527344 171.011719 235.445312 171.019531 C 235.335938 171.027344 235.269531 171.042969 235.238281 170.90625 C 235.226562 170.855469 235.132812 170.8125 235.070312 170.78125 C 234.875 170.6875 234.726562 170.566406 234.652344 170.347656 C 234.621094 170.25 234.496094 170.152344 234.398438 170.121094 C 234.230469 170.070312 234.132812 169.980469 234.03125 169.839844 C 233.855469 169.601562 233.710938 169.320312 233.363281 169.253906 C 233.207031 169.222656 233.070312 169.105469 232.925781 169.027344 C 232.902344 169.015625 232.890625 168.996094 232.867188 168.96875 C 232.882812 168.921875 232.898438 168.863281 232.921875 168.785156 C 232.820312 168.734375 232.640625 168.699219 232.617188 168.617188 C 232.53125 168.316406 232.261719 168.214844 232.042969 168.089844 C 231.859375 167.984375 231.820312 167.792969 231.675781 167.671875 C 231.566406 167.585938 231.484375 167.460938 231.410156 167.339844 C 231.28125 167.132812 231.195312 166.894531 231.039062 166.710938 C 230.894531 166.539062 230.65625 166.453125 230.503906 166.285156 C 230.132812 165.890625 229.53125 165.707031 229.410156 165.085938 C 229.402344 165.054688 229.367188 165.027344 229.34375 164.996094 C 229.183594 164.777344 229.027344 164.554688 228.859375 164.335938 C 228.796875 164.253906 228.722656 164.179688 228.652344 164.101562 C 228.488281 163.925781 228.234375 163.773438 228.175781 163.566406 C 228.070312 163.1875 227.816406 163.011719 227.542969 162.886719 C 227.351562 162.425781 227.101562 162.070312 226.636719 161.914062 C 226.660156 161.503906 226.480469 161.261719 226.078125 161.113281 C 225.964844 161.070312 225.84375 160.980469 225.773438 160.882812 C 225.648438 160.695312 225.570312 160.484375 225.453125 160.292969 C 225.414062 160.222656 225.335938 160.171875 225.273438 160.117188 C 225.109375 159.976562 224.945312 159.835938 224.78125 159.695312 C 224.71875 159.640625 224.667969 159.566406 224.597656 159.523438 C 224.363281 159.386719 224.277344 159.164062 224.226562 158.917969 C 224.214844 158.84375 224.210938 158.757812 224.167969 158.710938 C 223.949219 158.476562 223.726562 158.242188 223.488281 158.027344 C 223.386719 157.9375 223.308594 157.875 223.257812 157.730469 C 223.175781 157.480469 222.898438 157.339844 222.792969 157.082031 C 222.769531 157.027344 222.640625 157.019531 222.566406 156.980469 C 222.308594 156.855469 222.007812 156.792969 221.894531 156.46875 C 221.878906 156.429688 221.773438 156.421875 221.75 156.414062 C 221.699219 156.234375 221.703125 156.035156 221.605469 155.925781 C 221.066406 155.335938 220.453125 154.824219 219.839844 154.316406 C 219.621094 154.136719 219.390625 153.976562 219.191406 153.777344 C 218.703125 153.296875 218.144531 152.90625 217.53125 152.609375 C 217.308594 152.5 217.097656 152.402344 217.019531 152.140625 C 216.941406 152.175781 216.886719 152.199219 216.796875 152.242188 C 216.828125 152.011719 216.707031 151.921875 216.546875 151.945312 C 216.402344 151.96875 216.320312 151.90625 216.21875 151.835938 C 215.914062 151.617188 215.621094 151.371094 215.292969 151.195312 C 214.765625 150.914062 214.230469 150.640625 213.667969 150.441406 C 213.054688 150.21875 212.488281 149.933594 211.949219 149.574219 C 211.855469 149.515625 211.75 149.453125 211.644531 149.445312 C 211.289062 149.417969 211.039062 149.160156 210.714844 149.058594 C 210.417969 148.960938 210.136719 148.796875 209.835938 148.699219 C 209.015625 148.4375 208.183594 148.21875 207.320312 148.132812 C 206.972656 148.097656 206.625 148.078125 206.277344 148.046875 C 206.121094 148.03125 205.964844 148.007812 205.808594 147.980469 C 205.417969 147.90625 205.03125 147.8125 204.632812 147.933594 C 204.570312 147.953125 204.484375 147.902344 204.410156 147.882812 C 204.183594 147.816406 203.972656 147.710938 203.753906 147.949219 C 203.628906 148.089844 203.417969 148.125 203.214844 148.03125 C 203.054688 147.957031 202.902344 147.839844 202.710938 147.886719 C 202.675781 147.894531 202.644531 147.917969 202.609375 147.933594 C 202.621094 148.03125 202.628906 148.125 202.644531 148.265625 C 202.539062 148.238281 202.457031 148.230469 202.394531 148.199219 C 202.171875 148.085938 201.910156 147.988281 201.710938 148.121094 C 201.410156 148.324219 201.101562 148.503906 200.804688 148.667969 C 200.675781 148.605469 200.570312 148.542969 200.457031 148.507812 C 200.3125 148.464844 200.121094 148.46875 200.078125 148.613281 C 200.027344 148.777344 199.914062 148.796875 199.769531 148.871094 C 199.722656 148.644531 199.578125 148.597656 199.378906 148.664062 C 199.191406 148.726562 199.261719 148.886719 199.265625 149.035156 C 199.117188 148.898438 198.835938 148.84375 198.695312 148.945312 C 198.484375 149.097656 198.238281 149.136719 198 149.195312 C 197.746094 149.261719 197.644531 149.382812 197.679688 149.695312 C 197.347656 149.394531 197.050781 149.550781 196.746094 149.699219 C 196.59375 149.773438 196.433594 149.824219 196.28125 149.894531 C 196.160156 149.949219 196.023438 149.996094 196.0625 150.183594 C 195.777344 150.117188 195.589844 150.210938 195.472656 150.449219 C 195.0625 150.59375 194.6875 150.804688 194.308594 151.015625 C 194.140625 151.109375 194.03125 151.171875 194.035156 151.335938 C 193.804688 151.429688 193.59375 151.515625 193.398438 151.59375 C 193.40625 151.703125 193.414062 151.765625 193.417969 151.792969 C 193.253906 151.816406 193.089844 151.792969 193.007812 151.863281 C 192.796875 152.035156 192.5 152.089844 192.363281 152.347656 C 192.34375 152.378906 192.316406 152.425781 192.289062 152.425781 C 192.046875 152.425781 191.914062 152.582031 191.746094 152.730469 C 191.433594 153.003906 191.046875 153.195312 190.738281 153.472656 C 190.464844 153.714844 190.230469 153.980469 189.890625 154.152344 C 189.621094 154.285156 189.414062 154.546875 189.183594 154.753906 C 188.917969 154.992188 188.652344 155.234375 188.382812 155.484375 C 188.386719 155.546875 188.398438 155.628906 188.40625 155.710938 C 188.195312 155.746094 187.960938 155.699219 187.90625 155.992188 C 187.898438 156.039062 187.800781 156.09375 187.734375 156.109375 C 187.601562 156.136719 187.53125 156.214844 187.464844 156.328125 C 187.410156 156.425781 187.3125 156.507812 187.226562 156.585938 C 186.960938 156.828125 186.660156 157.039062 186.433594 157.308594 C 186.207031 157.578125 185.933594 157.789062 185.707031 158.054688 C 185.367188 158.460938 184.972656 158.816406 184.621094 159.214844 C 184.429688 159.433594 184.148438 159.597656 184.109375 159.933594 C 184.105469 159.96875 184.042969 160.003906 184 160.027344 C 183.527344 160.289062 183.324219 160.808594 182.933594 161.148438 C 182.921875 161.394531 182.640625 161.460938 182.585938 161.675781 C 182.167969 161.917969 181.945312 162.320312 181.695312 162.707031 C 181.640625 162.792969 181.558594 162.859375 181.496094 162.941406 C 181.371094 163.105469 181.253906 163.273438 181.136719 163.441406 C 181.105469 163.488281 181.09375 163.589844 181.058594 163.59375 C 180.789062 163.644531 180.765625 163.890625 180.65625 164.070312 C 180.605469 164.148438 180.554688 164.230469 180.492188 164.304688 C 180.085938 164.800781 179.582031 165.222656 179.351562 165.851562 C 179.335938 165.886719 179.285156 165.910156 179.253906 165.945312 C 179.046875 166.183594 178.824219 166.40625 178.636719 166.65625 C 178.40625 166.96875 178.210938 167.300781 177.988281 167.617188 C 177.914062 167.726562 177.730469 167.808594 177.730469 167.90625 C 177.726562 168.128906 177.570312 168.226562 177.453125 168.335938 C 177.074219 168.675781 176.851562 169.136719 176.582031 169.546875 C 176.3125 169.957031 175.917969 170.253906 175.671875 170.679688 C 175.558594 170.875 175.441406 171.042969 175.464844 171.257812 C 175.335938 171.324219 175.1875 171.359375 175.109375 171.449219 C 174.863281 171.753906 174.644531 172.074219 174.417969 172.390625 C 174.382812 172.4375 174.378906 172.503906 174.339844 172.542969 C 174.050781 172.878906 173.761719 173.210938 173.464844 173.539062 C 173.289062 173.738281 173.105469 173.921875 172.925781 174.113281 C 172.867188 174.175781 172.800781 174.234375 172.757812 174.308594 C 172.511719 174.746094 172.128906 175.070312 171.769531 175.398438 C 171.621094 175.53125 171.503906 175.628906 171.515625 175.816406 C 171.390625 175.859375 171.226562 175.867188 171.199219 175.933594 C 171.082031 176.222656 170.773438 176.269531 170.578125 176.457031 C 170.441406 176.59375 170.378906 176.699219 170.410156 176.886719 C 170.21875 176.898438 169.996094 176.820312 169.96875 177.101562 C 169.964844 177.117188 169.933594 177.132812 169.910156 177.144531 C 169.691406 177.265625 169.464844 177.378906 169.253906 177.507812 C 169.078125 177.617188 168.933594 177.769531 168.753906 177.863281 C 168.578125 177.960938 168.351562 177.988281 168.355469 178.265625 C 168.355469 178.28125 168.300781 178.3125 168.265625 178.320312 C 168.039062 178.382812 167.808594 178.441406 167.527344 178.515625 C 167.46875 178.59375 167.367188 178.722656 167.261719 178.867188 C 167.089844 178.867188 166.863281 178.816406 166.671875 178.878906 C 166.429688 178.953125 166.199219 179.054688 165.945312 179.03125 C 165.855469 179.328125 165.773438 179.421875 165.554688 179.375 C 165.308594 179.316406 165.078125 179.324219 164.835938 179.375 C 164.757812 179.386719 164.65625 179.382812 164.589844 179.339844 C 164.324219 179.179688 164.113281 179.320312 163.886719 179.445312 C 163.773438 179.367188 163.65625 179.285156 163.539062 179.203125 C 163.382812 179.390625 163.304688 179.117188 163.144531 179.132812 C 162.945312 179.152344 162.710938 179.054688 162.523438 178.949219 C 161.972656 178.636719 161.433594 178.296875 160.898438 177.957031 C 160.617188 177.785156 160.347656 177.597656 160.082031 177.40625 C 159.746094 177.164062 159.429688 176.902344 159.09375 176.664062 C 158.71875 176.394531 158.328125 176.144531 157.945312 175.878906 C 157.777344 175.761719 157.59375 175.648438 157.46875 175.492188 C 157.328125 175.308594 157.160156 175.191406 156.957031 175.09375 C 156.867188 175.050781 156.777344 174.964844 156.738281 174.875 C 156.660156 174.707031 156.539062 174.613281 156.378906 174.527344 C 156.242188 174.460938 156.132812 174.34375 156.015625 174.242188 C 155.960938 174.191406 155.925781 174.125 155.871094 174.078125 C 155.484375 173.753906 155.054688 173.488281 154.679688 173.144531 C 154.554688 173.027344 154.40625 172.929688 154.253906 172.84375 C 154.113281 172.765625 153.96875 172.710938 153.941406 172.523438 C 153.933594 172.480469 153.894531 172.429688 153.855469 172.414062 C 153.59375 172.316406 153.433594 172.113281 153.257812 171.910156 C 153.164062 171.804688 152.96875 171.789062 152.851562 171.695312 C 152.722656 171.59375 152.644531 171.425781 152.519531 171.320312 C 152.28125 171.125 151.964844 171.027344 151.832031 170.707031 C 151.808594 170.652344 151.714844 170.625 151.652344 170.585938 C 151.457031 170.457031 151.164062 170.453125 151.089844 170.152344 C 151.082031 170.117188 151.019531 170.089844 150.976562 170.070312 C 150.738281 169.957031 150.566406 169.71875 150.269531 169.707031 C 150.21875 169.707031 150.167969 169.617188 150.117188 169.574219 C 149.902344 169.390625 149.761719 169.125 149.480469 169.019531 C 149.367188 168.980469 149.253906 168.945312 149.144531 168.90625 C 149.09375 168.828125 149.054688 168.707031 148.972656 168.644531 C 148.429688 168.230469 147.886719 167.816406 147.324219 167.429688 C 146.992188 167.203125 146.644531 166.984375 146.273438 166.835938 C 145.972656 166.714844 145.707031 166.558594 145.4375 166.390625 C 144.933594 166.078125 144.425781 165.761719 143.894531 165.492188 C 143.15625 165.117188 142.394531 164.78125 141.640625 164.429688 C 140.855469 164.0625 140.070312 163.695312 139.28125 163.332031 C 139.207031 163.296875 139.117188 163.265625 139.035156 163.261719 C 138.628906 163.25 138.316406 162.960938 137.910156 162.902344 C 137.488281 162.84375 137.089844 162.617188 136.671875 162.523438 C 136.195312 162.414062 135.707031 162.359375 135.226562 162.300781 C 134.65625 162.226562 134.089844 162.148438 133.515625 162.109375 C 133.019531 162.078125 132.523438 162.085938 132.027344 162.097656 C 131.914062 162.097656 131.808594 162.183594 131.691406 162.230469 C 131.601562 162.144531 131.496094 162.097656 131.339844 162.140625 C 131.140625 162.203125 130.945312 162.25 130.824219 162.449219 C 130.703125 162.648438 130.496094 162.707031 130.34375 162.585938 C 130.121094 162.402344 129.910156 162.4375 129.675781 162.550781 C 129.578125 162.601562 129.472656 162.617188 129.367188 162.652344 C 129.277344 162.679688 129.1875 162.703125 129.105469 162.746094 C 128.96875 162.816406 128.84375 162.898438 128.695312 162.988281 C 128.734375 163.054688 128.777344 163.136719 128.847656 163.265625 L 128.519531 163.265625 C 128.46875 163.175781 128.445312 163.078125 128.402344 163.066406 C 128.328125 163.046875 128.226562 163.054688 128.15625 163.089844 C 127.804688 163.257812 127.460938 163.4375 127.117188 163.621094 C 127.074219 163.644531 127.054688 163.71875 127.042969 163.773438 C 126.996094 163.964844 126.84375 164.0625 126.6875 164.015625 C 126.375 163.914062 126.179688 164.148438 126.046875 164.296875 C 125.792969 164.582031 125.457031 164.734375 125.167969 164.9375 C 124.828125 165.179688 124.546875 165.492188 124.179688 165.695312 C 124.125 165.726562 124.097656 165.8125 124.058594 165.871094 C 124.128906 165.921875 124.1875 165.960938 124.296875 166.035156 C 123.800781 165.988281 123.65625 166.066406 123.535156 166.402344 C 123.394531 166.414062 123.265625 166.410156 123.167969 166.574219 C 123.0625 166.742188 122.785156 166.789062 122.808594 167.0625 C 122.808594 167.074219 122.773438 167.09375 122.753906 167.097656 C 122.460938 167.128906 122.335938 167.378906 122.164062 167.558594 C 122.027344 167.695312 121.929688 167.867188 121.800781 168.003906 C 121.578125 168.242188 121.328125 168.449219 121.117188 168.695312 C 120.738281 169.144531 120.378906 169.613281 120.011719 170.074219 C 119.609375 170.574219 119.265625 171.121094 118.898438 171.648438 C 118.632812 172.027344 118.410156 172.429688 118.132812 172.796875 C 117.933594 173.0625 117.796875 173.375 117.628906 173.664062 C 117.445312 173.972656 117.238281 174.265625 117.070312 174.582031 C 116.726562 175.234375 116.398438 175.894531 116.070312 176.554688 C 116.070312 176.554688 116.070312 176.554688 116.070312 176.558594 C 114.71875 179.28125 114.671875 182.394531 113.5 185.171875 C 113.480469 185.214844 113.488281 185.269531 113.480469 185.316406 C 113.433594 185.640625 113.390625 185.960938 113.34375 186.285156 C 113.3125 186.488281 113.324219 186.722656 113.226562 186.886719 C 113.105469 187.097656 113.078125 187.324219 113.042969 187.539062 C 113.003906 187.753906 113.0625 187.988281 112.9375 188.203125 C 112.921875 188.230469 112.964844 188.292969 112.972656 188.34375 C 112.980469 188.402344 112.988281 188.464844 112.980469 188.523438 C 112.910156 189.066406 112.835938 189.609375 112.757812 190.152344 C 112.726562 190.382812 112.726562 190.628906 112.636719 190.835938 C 112.566406 190.992188 112.550781 191.136719 112.570312 191.289062 C 112.589844 191.449219 112.644531 191.597656 112.667969 191.753906 C 112.683594 191.859375 112.707031 191.984375 112.667969 192.078125 C 112.527344 192.410156 112.648438 192.707031 112.765625 193.003906 C 112.808594 193.117188 112.878906 193.226562 112.894531 193.34375 C 112.953125 193.800781 112.996094 194.257812 113.046875 194.714844 C 113.097656 195.171875 113.117188 195.636719 113.203125 196.089844 C 113.296875 196.601562 113.445312 197.101562 113.578125 197.609375 C 113.667969 197.960938 113.78125 198.3125 113.871094 198.667969 C 113.933594 198.921875 114 199.179688 114.027344 199.441406 C 114.050781 199.6875 114.101562 199.917969 114.230469 200.128906 C 114.261719 200.175781 114.320312 200.257812 114.304688 200.277344 C 114.144531 200.492188 114.34375 200.609375 114.421875 200.761719 C 114.457031 200.828125 114.511719 200.945312 114.484375 200.976562 C 114.367188 201.113281 114.464844 201.195312 114.53125 201.292969 C 114.585938 201.371094 114.695312 201.476562 114.675781 201.527344 C 114.582031 201.785156 114.761719 201.9375 114.855469 202.132812 C 114.980469 202.390625 115.117188 202.660156 115.167969 202.9375 C 115.273438 203.484375 115.492188 203.96875 115.789062 204.433594 C 115.824219 204.492188 115.914062 204.550781 115.910156 204.605469 C 115.894531 204.863281 116.058594 205.039062 116.164062 205.242188 C 116.210938 205.335938 116.359375 205.417969 116.347656 205.492188 C 116.3125 205.75 116.503906 205.894531 116.617188 206.066406 C 116.730469 206.234375 116.757812 206.457031 116.921875 206.585938 C 117.097656 206.722656 117.203125 206.894531 117.292969 207.09375 C 117.351562 207.222656 117.441406 207.355469 117.546875 207.449219 C 117.820312 207.679688 117.988281 207.980469 118.179688 208.273438 C 118.261719 208.402344 118.347656 208.535156 118.457031 208.640625 C 118.746094 208.917969 119.042969 209.183594 119.339844 209.453125 C 119.394531 209.5 119.457031 209.5625 119.523438 209.566406 C 119.671875 209.578125 119.753906 209.652344 119.84375 209.761719 C 119.929688 209.859375 120.046875 209.941406 120.167969 210 C 120.714844 210.265625 121.226562 210.574219 121.820312 210.765625 C 122.335938 210.925781 122.851562 211.058594 123.375 211.160156 C 124.167969 211.3125 124.984375 211.292969 125.789062 211.246094 C 126.226562 211.222656 126.664062 211.152344 127.097656 211.082031 C 127.671875 210.988281 128.242188 210.886719 128.8125 210.769531 C 129.097656 210.710938 129.375 210.613281 129.65625 210.53125 C 129.972656 210.441406 130.289062 210.359375 130.601562 210.25 C 131.324219 209.996094 132.039062 209.726562 132.757812 209.460938 C 133.011719 209.367188 133.316406 209.328125 133.496094 209.160156 C 133.746094 208.925781 134.042969 208.921875 134.316406 208.8125 C 134.453125 208.761719 134.589844 208.714844 134.722656 208.652344 C 135.25 208.402344 135.761719 208.125 136.296875 207.90625 C 136.5625 207.800781 136.824219 207.742188 136.929688 207.390625 C 137.144531 207.5625 137.332031 207.515625 137.535156 207.425781 C 137.976562 207.226562 138.398438 206.996094 138.863281 206.847656 C 139.195312 206.742188 139.496094 206.539062 139.8125 206.382812 C 139.84375 206.363281 139.878906 206.332031 139.910156 206.335938 C 140.234375 206.363281 140.488281 206.167969 140.765625 206.054688 C 140.925781 205.992188 141.113281 205.980469 141.25 205.890625 C 141.523438 205.703125 141.839844 205.621094 142.140625 205.519531 C 142.511719 205.394531 142.898438 205.316406 143.273438 205.207031 C 143.808594 205.058594 144.320312 204.839844 144.882812 204.804688 C 145.1875 204.78125 145.492188 204.703125 145.796875 204.710938 C 146.269531 204.726562 146.75 204.742188 147.210938 204.847656 C 147.734375 204.96875 148.273438 205.09375 148.738281 205.40625 C 148.878906 205.5 149.039062 205.566406 149.1875 205.652344 C 149.527344 205.851562 149.945312 205.933594 150.164062 206.316406 C 150.183594 206.355469 150.246094 206.371094 150.289062 206.390625 C 150.699219 206.597656 150.964844 206.957031 151.261719 207.292969 C 151.417969 207.472656 151.601562 207.632812 151.785156 207.785156 C 151.980469 207.949219 152.214844 208.070312 152.273438 208.355469 C 152.285156 208.417969 152.355469 208.472656 152.402344 208.527344 C 152.535156 208.679688 152.714844 208.8125 152.792969 208.988281 C 153.011719 209.488281 153.507812 209.753906 153.765625 210.222656 C 153.921875 210.5 154.21875 210.695312 154.253906 211.042969 C 154.257812 211.074219 154.289062 211.121094 154.3125 211.125 C 154.546875 211.1875 154.492188 211.542969 154.769531 211.5625 C 154.789062 211.566406 154.804688 211.644531 154.820312 211.6875 C 154.933594 211.953125 155.121094 212.203125 155.324219 212.359375 C 155.53125 212.515625 155.660156 212.722656 155.851562 212.871094 C 155.800781 212.941406 155.765625 212.996094 155.722656 213.054688 C 156.113281 213.210938 156.097656 213.683594 156.421875 213.871094 C 156.425781 213.875 156.417969 213.894531 156.417969 213.90625 C 156.4375 214.144531 156.621094 214.28125 156.761719 214.4375 C 156.875 214.554688 157.078125 214.632812 157.121094 214.765625 C 157.222656 215.066406 157.371094 215.320312 157.585938 215.546875 C 157.839844 215.8125 158.09375 216.082031 158.328125 216.363281 C 158.410156 216.457031 158.488281 216.527344 158.59375 216.59375 C 158.742188 216.6875 158.886719 216.820312 158.984375 216.96875 C 159.152344 217.226562 159.308594 217.492188 159.414062 217.777344 C 159.503906 218.019531 159.761719 218.101562 159.847656 218.332031 C 159.886719 218.441406 159.933594 218.570312 160.015625 218.644531 C 160.3125 218.910156 160.695312 219.082031 160.878906 219.464844 C 160.886719 219.480469 160.917969 219.488281 160.941406 219.5 C 161.148438 219.597656 161.195312 219.894531 161.464844 219.914062 C 161.488281 219.917969 161.527344 219.972656 161.523438 220 C 161.492188 220.179688 161.59375 220.269531 161.734375 220.339844 C 161.875 220.410156 161.820312 220.609375 162.011719 220.675781 C 162.320312 220.789062 162.554688 221.066406 162.71875 221.320312 C 162.851562 221.53125 163.019531 221.589844 163.199219 221.691406 C 163.269531 221.730469 163.351562 221.769531 163.394531 221.832031 C 163.535156 222.046875 163.707031 222.234375 163.925781 222.375 C 163.996094 222.421875 164.09375 222.457031 164.125 222.523438 C 164.210938 222.714844 164.375 222.777344 164.550781 222.839844 C 164.675781 222.886719 164.863281 222.921875 164.898438 223.015625 C 164.980469 223.207031 165.152344 223.253906 165.285156 223.363281 C 165.40625 223.460938 165.625 223.46875 165.597656 223.710938 C 165.597656 223.730469 165.691406 223.78125 165.742188 223.789062 C 165.824219 223.796875 165.910156 223.773438 165.992188 223.765625 C 166.066406 223.992188 166.199219 224.152344 166.394531 224.253906 C 166.46875 224.292969 166.582031 224.308594 166.617188 224.371094 C 166.851562 224.742188 167.214844 224.820312 167.605469 224.855469 C 167.648438 224.859375 167.6875 224.882812 167.722656 224.90625 C 167.808594 224.976562 167.886719 225.070312 167.980469 225.125 C 168.355469 225.328125 168.753906 225.492188 169.113281 225.722656 C 169.394531 225.90625 169.664062 226.023438 170 225.984375 C 170.054688 225.980469 170.167969 226.035156 170.175781 226.078125 C 170.214844 226.269531 170.367188 226.28125 170.503906 226.324219 C 170.714844 226.386719 170.9375 226.421875 171.132812 226.511719 C 171.738281 226.792969 172.390625 226.914062 173.035156 226.988281 C 173.574219 227.050781 174.109375 227.167969 174.667969 227.175781 C 175.203125 227.179688 175.738281 227.210938 176.277344 227.179688 C 177.402344 227.113281 178.507812 226.964844 179.585938 226.613281 C 180.222656 226.40625 180.84375 226.171875 181.402344 225.796875 C 181.429688 225.777344 181.480469 225.773438 181.515625 225.78125 C 181.746094 225.832031 181.910156 225.726562 182.082031 225.59375 C 182.261719 225.453125 182.457031 225.335938 182.65625 225.222656 C 182.890625 225.089844 183.136719 224.976562 183.371094 224.84375 C 183.425781 224.8125 183.464844 224.730469 183.488281 224.664062 C 183.550781 224.484375 183.679688 224.429688 183.855469 224.410156 C 184.382812 224.355469 184.609375 223.90625 184.976562 223.578125 C 185.09375 223.515625 185.277344 223.460938 185.398438 223.339844 C 185.632812 223.113281 185.824219 222.84375 186.039062 222.597656 C 186.128906 222.496094 186.230469 222.328125 186.328125 222.328125 C 186.597656 222.332031 186.691406 222.125 186.847656 221.988281 C 186.902344 221.941406 186.957031 221.894531 187.007812 221.84375 C 187.253906 221.605469 187.492188 221.363281 187.761719 221.152344 C 187.808594 221.117188 187.867188 221.0625 187.871094 221.011719 C 187.882812 220.871094 187.988281 220.816406 188.0625 220.726562 C 188.171875 220.59375 188.34375 220.570312 188.441406 220.472656 C 188.726562 220.179688 189.066406 219.929688 189.238281 219.539062 C 189.269531 219.460938 189.308594 219.382812 189.367188 219.320312 C 189.523438 219.15625 189.699219 219.011719 189.855469 218.84375 C 189.9375 218.753906 189.964844 218.578125 190.054688 218.546875 C 190.347656 218.445312 190.386719 218.21875 190.390625 217.949219 C 190.636719 217.945312 190.816406 217.875 190.851562 217.617188 C 190.855469 217.578125 190.90625 217.539062 190.941406 217.507812 C 191.089844 217.390625 191.160156 217.183594 191.375 217.140625 C 191.492188 216.800781 191.882812 216.675781 192.011719 216.335938 C 192.039062 216.257812 192.089844 216.21875 192.035156 216.113281 C 191.964844 215.976562 192.054688 215.859375 192.199219 215.8125 C 192.300781 215.777344 192.40625 215.761719 192.503906 215.738281 C 192.605469 215.566406 192.617188 215.339844 192.878906 215.3125 C 192.9375 215.308594 192.984375 215.167969 193.035156 215.089844 C 193.117188 214.96875 193.171875 214.808594 193.28125 214.746094 C 193.417969 214.667969 193.515625 214.589844 193.582031 214.449219 C 193.644531 214.320312 193.730469 214.195312 193.832031 214.097656 C 194.136719 213.804688 194.417969 213.496094 194.597656 213.105469 C 194.632812 213.027344 194.671875 212.9375 194.738281 212.894531 C 195.027344 212.699219 195.113281 212.40625 195.128906 212.082031 C 195.417969 212.113281 195.589844 212.046875 195.695312 211.84375 C 195.757812 211.726562 195.75 211.566406 195.824219 211.46875 C 195.902344 211.363281 196.0625 211.328125 196.152344 211.226562 C 196.382812 210.96875 196.601562 210.691406 196.816406 210.417969 C 196.867188 210.351562 196.882812 210.261719 196.910156 210.183594 C 196.941406 210.078125 196.964844 209.972656 196.996094 209.851562 C 197.183594 209.875 197.332031 209.84375 197.378906 209.648438 C 197.386719 209.617188 197.417969 209.578125 197.445312 209.566406 C 197.757812 209.417969 197.902344 209.121094 198.085938 208.863281 C 198.199219 208.703125 198.292969 208.511719 198.441406 208.40625 C 198.578125 208.316406 198.609375 208.210938 198.632812 208.082031 C 198.652344 207.976562 198.652344 207.867188 198.664062 207.746094 C 198.769531 207.722656 198.863281 207.703125 198.953125 207.675781 C 199.046875 207.648438 199.136719 207.613281 199.234375 207.574219 C 199.273438 207.476562 199.3125 207.375 199.339844 207.3125 C 199.457031 207.257812 199.582031 207.238281 199.617188 207.171875 C 199.6875 207.039062 199.710938 206.882812 199.746094 206.75 C 199.839844 206.675781 199.933594 206.605469 200.023438 206.527344 C 200.105469 206.453125 200.167969 206.347656 200.261719 206.300781 C 200.453125 206.214844 200.597656 206.105469 200.640625 205.894531 C 200.648438 205.863281 200.679688 205.835938 200.703125 205.808594 C 200.964844 205.570312 201.269531 205.375 201.433594 205.042969 C 201.453125 205 201.5 204.960938 201.539062 204.945312 C 201.785156 204.855469 201.886719 204.65625 201.925781 204.382812 C 202.308594 204.453125 202.363281 204.0625 202.605469 203.917969 C 202.851562 203.773438 203.109375 203.613281 203.089844 203.300781 C 203.246094 203.214844 203.378906 203.160156 203.488281 203.074219 C 203.808594 202.824219 204.097656 202.519531 204.441406 202.3125 C 204.789062 202.101562 204.859375 201.578125 205.347656 201.539062 C 205.378906 201.539062 205.40625 201.46875 205.4375 201.429688 C 205.664062 201.148438 205.898438 200.871094 206.246094 200.730469 C 206.414062 200.664062 206.589844 200.601562 206.644531 200.394531 C 206.652344 200.359375 206.71875 200.339844 206.757812 200.3125 C 206.867188 200.238281 206.976562 200.167969 207.085938 200.09375 C 207.324219 199.933594 207.550781 199.734375 207.808594 199.621094 C 208.058594 199.515625 208.265625 199.402344 208.332031 199.207031 C 208.589844 199.089844 208.796875 199.015625 208.984375 198.910156 C 209.210938 198.777344 209.414062 198.625 209.667969 198.527344 C 210.222656 198.320312 210.660156 197.863281 211.269531 197.757812 C 211.289062 197.753906 211.308594 197.726562 211.332031 197.71875 C 211.75 197.550781 212.160156 197.351562 212.589844 197.230469 C 213.023438 197.109375 213.449219 196.964844 213.890625 196.875 C 214.261719 196.800781 214.625 196.707031 215 196.675781 C 215.351562 196.644531 215.707031 196.617188 216.058594 196.589844 C 216.773438 196.527344 217.488281 196.484375 218.191406 196.671875 C 218.226562 196.679688 218.265625 196.683594 218.304688 196.6875 C 218.953125 196.722656 219.574219 196.914062 220.195312 197.082031 C 220.679688 197.210938 221.148438 197.394531 221.621094 197.558594 C 221.746094 197.601562 221.871094 197.660156 221.988281 197.722656 C 222.191406 197.832031 222.382812 197.984375 222.636719 197.914062 C 222.667969 197.90625 222.730469 197.917969 222.742188 197.9375 C 222.859375 198.171875 223.117188 198.183594 223.3125 198.292969 C 223.757812 198.542969 224.191406 198.800781 224.636719 199.042969 C 224.917969 199.195312 225.214844 199.3125 225.492188 199.464844 C 225.710938 199.589844 225.90625 199.753906 226.121094 199.886719 C 226.398438 200.058594 226.71875 200.160156 226.941406 200.414062 C 227.011719 200.492188 227.128906 200.535156 227.230469 200.578125 C 227.464844 200.675781 227.710938 200.738281 227.859375 200.984375 C 227.90625 201.0625 228.054688 201.078125 228.152344 201.125 C 228.386719 201.238281 228.644531 201.3125 228.839844 201.46875 C 229.074219 201.664062 229.308594 201.820312 229.597656 201.945312 C 230.164062 202.195312 230.679688 202.558594 231.234375 202.832031 C 231.660156 203.042969 232.113281 203.1875 232.554688 203.363281 C 232.613281 203.382812 232.671875 203.398438 232.726562 203.417969 C 233.203125 203.570312 233.667969 203.753906 234.152344 203.863281 C 235.113281 204.070312 236.09375 204.078125 237.066406 204.089844 C 237.3125 204.089844 237.554688 204.042969 237.796875 204.027344 C 238.410156 203.988281 239.015625 203.921875 239.585938 203.679688 C 239.628906 203.660156 239.675781 203.644531 239.722656 203.644531 C 240.3125 203.648438 240.832031 203.375 241.375 203.207031 C 241.921875 203.035156 242.441406 202.761719 242.96875 202.519531 C 243.117188 202.449219 243.242188 202.300781 243.394531 202.265625 C 243.636719 202.210938 243.84375 202.128906 244.054688 202 C 244.34375 201.824219 244.636719 201.675781 244.78125 201.429688 C 245.019531 201.371094 245.222656 201.359375 245.386719 201.273438 C 245.625 201.15625 245.824219 200.960938 246.058594 200.84375 C 246.523438 200.609375 246.941406 200.339844 247.144531 199.820312 C 247.429688 199.902344 247.632812 199.757812 247.820312 199.605469 C 248.007812 199.453125 248.175781 199.277344 248.359375 199.125 C 248.644531 198.882812 249.035156 198.75 249.152344 198.339844 C 249.164062 198.300781 249.226562 198.277344 249.265625 198.25 C 249.429688 198.148438 249.59375 198.050781 249.789062 197.929688 C 249.800781 197.867188 249.820312 197.761719 249.828125 197.714844 C 250.035156 197.617188 250.226562 197.570312 250.347656 197.457031 C 250.726562 197.09375 251.058594 196.6875 251.464844 196.347656 C 251.726562 196.125 251.910156 195.808594 252.136719 195.539062 C 252.308594 195.332031 252.46875 195.101562 252.679688 194.9375 C 253.058594 194.640625 253.332031 194.296875 253.378906 193.761719 C 253.714844 193.804688 253.796875 193.464844 254.042969 193.328125 C 254.269531 193.203125 254.390625 192.882812 254.558594 192.648438 C 254.535156 192.578125 254.511719 192.503906 254.484375 192.421875 C 254.757812 192.304688 255.03125 192.222656 255.027344 191.875 C 255.214844 191.757812 255.148438 191.46875 255.390625 191.363281 C 255.511719 191.3125 255.648438 191.164062 255.671875 191.039062 C 255.707031 190.878906 255.792969 190.789062 255.886719 190.679688 C 256.003906 190.542969 256.101562 190.394531 256.203125 190.246094 C 256.242188 190.191406 256.265625 190.121094 256.304688 190.0625 C 256.402344 189.894531 256.507812 189.734375 256.597656 189.566406 C 256.691406 189.398438 256.726562 189.207031 256.914062 189.089844 C 256.996094 189.039062 257.019531 188.878906 257.046875 188.761719 C 257.109375 188.527344 257.175781 188.304688 257.359375 188.117188 C 257.476562 188.003906 257.554688 187.84375 257.613281 187.691406 C 257.738281 187.359375 257.898438 187.042969 258.054688 186.730469 C 258.195312 186.453125 258.351562 186.199219 258.398438 185.882812 C 258.414062 185.777344 258.527344 185.691406 258.59375 185.597656 C 258.640625 185.53125 258.691406 185.464844 258.71875 185.394531 C 258.886719 184.984375 259.046875 184.570312 259.21875 184.160156 C 259.269531 184.039062 259.335938 183.921875 259.398438 183.800781 C 259.433594 183.738281 259.488281 183.683594 259.511719 183.617188 C 259.601562 183.316406 259.671875 183.011719 259.773438 182.714844 C 259.972656 182.140625 260.191406 181.574219 260.394531 181.003906 C 260.449219 180.84375 260.480469 180.675781 260.53125 180.515625 C 260.675781 180.054688 260.832031 179.59375 260.976562 179.132812 C 261.074219 178.808594 261.160156 178.476562 261.25 178.152344 C 261.371094 177.703125 261.503906 177.257812 261.617188 176.808594 C 261.691406 176.515625 261.730469 176.210938 261.800781 175.917969 C 261.894531 175.515625 262.050781 175.121094 262.101562 174.714844 C 262.253906 173.527344 262.394531 172.335938 262.402344 171.132812 C 262.40625 170.960938 262.417969 170.792969 262.421875 170.621094 C 262.417969 170.097656 262.46875 169.574219 262.351562 169.050781 Z M 191.679688 160.289062 C 191.671875 160.226562 191.664062 160.167969 191.652344 160.109375 L 191.734375 160.085938 C 191.746094 160.144531 191.757812 160.203125 191.765625 160.257812 C 191.765625 160.265625 191.707031 160.277344 191.679688 160.289062 Z M 191.679688 160.289062 " fill-opacity="1" fill-rule="nonzero"/></g><path fill="#38b6ff" d="M 200.957031 148.171875 C 201.089844 148.199219 201.15625 148.214844 201.289062 148.246094 C 201.136719 148.34375 201.058594 148.398438 200.957031 148.171875 Z M 200.957031 148.171875 " fill-opacity="1" fill-rule="nonzero"/><g fill="#004aad" fill-opacity="1"><g transform="translate(239.97097, 311.06248)"><g><path d="M 7.34375 -4.933594 C 9.828125 -4.933594 10.585938 -8.460938 10.691406 -10.90625 C 11.519531 -10.042969 12.421875 -9.539062 13.464844 -9.539062 C 14.257812 -9.539062 15.085938 -9.792969 15.910156 -10.332031 C 16.164062 -10.441406 16.273438 -10.621094 16.273438 -10.945312 C 16.273438 -11.050781 16.234375 -11.195312 16.164062 -11.304688 C 16.019531 -11.554688 15.804688 -11.664062 15.550781 -11.664062 C 15.371094 -11.664062 15.265625 -11.628906 15.15625 -11.554688 C 14.542969 -11.160156 13.96875 -10.980469 13.464844 -10.980469 C 12.058594 -10.980469 11.339844 -12.421875 10.800781 -13.175781 C 10.585938 -13.429688 10.367188 -13.535156 10.117188 -13.535156 C 10.007812 -13.535156 9.898438 -13.535156 9.863281 -13.5 C 9.503906 -13.390625 9.324219 -13.105469 9.289062 -12.636719 L 9.289062 -12.167969 C 9.289062 -10.691406 9 -6.371094 7.378906 -6.371094 C 6.15625 -6.371094 5.941406 -8.820312 5.941406 -10.65625 C 5.941406 -11.269531 5.976562 -11.808594 5.976562 -12.203125 C 6.011719 -12.601562 5.6875 -12.960938 5.257812 -12.960938 C 4.933594 -12.960938 4.679688 -12.816406 4.570312 -12.492188 C 4.105469 -11.230469 2.988281 -7.921875 2.089844 -6.910156 C 1.835938 -7.453125 1.765625 -8.28125 1.765625 -9.179688 C 1.765625 -10.800781 2.015625 -12.636719 2.410156 -13.753906 C 2.519531 -14.21875 2.375 -14.507812 1.945312 -14.6875 C 1.546875 -14.796875 1.152344 -14.617188 1.042969 -14.21875 C 0.648438 -13.066406 0.324219 -11.050781 0.324219 -9.214844 C 0.324219 -7.199219 0.757812 -5.328125 2.050781 -5.328125 C 3.238281 -5.328125 4.140625 -7.378906 4.609375 -8.496094 C 4.894531 -6.660156 5.507812 -4.933594 7.34375 -4.933594 Z M 7.34375 -4.933594 "/></g></g></g><g fill="#004aad" fill-opacity="1"><g transform="translate(254.874999, 311.06248)"><g><path d="M -0.109375 -5.113281 C 0.214844 -4.894531 0.574219 -4.789062 0.972656 -4.789062 C 2.304688 -4.789062 3.851562 -6.335938 4.679688 -7.667969 C 4.570312 -5.976562 5.363281 -4.789062 6.625 -4.789062 C 8.0625 -4.789062 10.152344 -6.335938 12.457031 -10.546875 C 12.492188 -10.691406 12.527344 -10.800781 12.527344 -10.871094 C 12.527344 -11.160156 12.382812 -11.375 12.132812 -11.519531 C 12.058594 -11.554688 11.953125 -11.59375 11.808594 -11.59375 C 11.519531 -11.59375 11.304688 -11.484375 11.160156 -11.230469 C 10.007812 -8.929688 7.882812 -6.265625 6.839844 -6.265625 C 6.445312 -6.265625 6.226562 -6.589844 6.226562 -7.558594 C 6.226562 -8.027344 6.265625 -8.605469 6.40625 -9.324219 C 6.515625 -10.078125 6.660156 -10.835938 6.910156 -11.519531 C 7.09375 -12.058594 6.769531 -12.527344 6.226562 -12.527344 C 5.976562 -12.527344 5.761719 -12.382812 5.578125 -12.097656 C 4.714844 -10.441406 3.3125 -7.703125 1.835938 -6.625 C 1.511719 -6.371094 1.261719 -6.265625 1.007812 -6.265625 C 0.613281 -6.265625 0.433594 -6.550781 0.433594 -7.164062 C 0.433594 -9.035156 2.554688 -13.210938 6.40625 -13.210938 C 6.804688 -13.210938 7.128906 -13.535156 7.128906 -13.933594 C 7.128906 -14.328125 6.804688 -14.652344 6.40625 -14.652344 C 1.90625 -14.652344 -0.972656 -10.078125 -0.972656 -7.164062 C -0.972656 -6.265625 -0.683594 -5.507812 -0.109375 -5.113281 Z M -0.109375 -5.113281 "/></g></g></g><g fill="#004aad" fill-opacity="1"><g transform="translate(265.639025, 311.06248)"><g><path d="M 3.277344 -4.859375 C 4.789062 -4.859375 5.21875 -6.625 5.507812 -7.777344 C 5.796875 -8.746094 6.011719 -9.46875 6.265625 -10.441406 C 6.910156 -10.042969 7.667969 -9.863281 8.53125 -9.863281 C 9.253906 -9.863281 10.007812 -10.007812 10.765625 -10.332031 C 11.089844 -10.441406 11.230469 -10.65625 11.230469 -10.980469 C 11.230469 -11.015625 11.195312 -11.125 11.160156 -11.269531 C 11.050781 -11.554688 10.800781 -11.699219 10.476562 -11.699219 C 10.367188 -11.699219 10.261719 -11.699219 10.222656 -11.664062 C 9.648438 -11.410156 9.070312 -11.304688 8.53125 -11.304688 C 7.488281 -11.304688 6.695312 -11.734375 6.589844 -12.058594 C 6.589844 -12.167969 6.660156 -12.277344 6.660156 -12.457031 C 6.660156 -12.742188 6.550781 -13.03125 6.121094 -13.175781 C 5.722656 -13.285156 5.4375 -13.140625 5.257812 -12.742188 L 5.148438 -12.238281 C 4.933594 -10.765625 3.816406 -6.191406 3.238281 -6.300781 C 2.664062 -6.589844 1.871094 -9.289062 1.871094 -12.097656 C 1.871094 -12.707031 1.90625 -13.320312 1.980469 -13.894531 C 2.015625 -14.328125 1.726562 -14.722656 1.261719 -14.722656 C 0.863281 -14.722656 0.613281 -14.507812 0.539062 -14.113281 C 0.46875 -13.609375 0.433594 -12.996094 0.433594 -12.277344 C 0.433594 -9.179688 1.152344 -4.859375 3.277344 -4.859375 Z M 3.277344 -4.859375 "/></g></g></g><g fill="#004aad" fill-opacity="1"><g transform="translate(275.503042, 311.06248)"><g><path d="M 3.78125 -4.789062 C 6.121094 -4.789062 9 -6.121094 11.699219 -10.546875 C 11.773438 -10.65625 11.808594 -10.765625 11.808594 -10.90625 C 11.808594 -11.230469 11.699219 -11.410156 11.449219 -11.519531 C 11.339844 -11.59375 11.195312 -11.628906 11.089844 -11.628906 C 10.835938 -11.628906 10.621094 -11.519531 10.476562 -11.304688 C 9.214844 -9.179688 7.847656 -7.777344 6.40625 -6.949219 C 5.578125 -6.515625 4.609375 -6.226562 3.636719 -6.226562 C 2.304688 -6.226562 1.152344 -6.804688 1.152344 -8.351562 C 1.152344 -8.53125 1.1875 -8.710938 1.222656 -8.964844 C 3.636719 -9.144531 6.480469 -10.90625 6.480469 -12.816406 C 6.480469 -13.859375 5.6875 -14.6875 4.535156 -14.6875 C 3.816406 -14.6875 2.953125 -14.363281 2.050781 -13.5 C 0.648438 -12.167969 -0.253906 -10.117188 -0.253906 -8.351562 C -0.253906 -6.445312 0.863281 -4.789062 3.78125 -4.789062 Z M 1.726562 -10.511719 C 2.699219 -12.527344 3.886719 -13.246094 4.570312 -13.246094 C 4.824219 -13.246094 4.96875 -13.175781 5.003906 -12.996094 C 5.183594 -12.167969 3.492188 -10.800781 1.726562 -10.511719 Z M 1.726562 -10.511719 "/></g></g></g><g fill="#004aad" fill-opacity="1"><g transform="translate(285.51106, 311.06248)"><g><path d="M 17.136719 2.773438 C 17.53125 2.773438 17.820312 2.484375 17.855469 2.089844 C 18.179688 -4.429688 18.46875 -9.109375 18.46875 -13.03125 C 18.46875 -16.453125 18.289062 -19.222656 17.820312 -22.246094 C 17.425781 -24.695312 16.558594 -26.0625 15.265625 -26.0625 C 12.671875 -26.0625 10.980469 -19.90625 10.042969 -16.054688 C 9.863281 -15.300781 9.757812 -14.6875 9.648438 -14.183594 C 9.359375 -17.0625 8.855469 -22.210938 6.371094 -22.210938 C 3.671875 -22.210938 3.167969 -16.632812 1.441406 -7.128906 C 1.476562 -11.339844 1.871094 -17.0625 3.023438 -24.984375 C 3.058594 -25.378906 2.808594 -25.703125 2.410156 -25.8125 C 2.015625 -25.847656 1.691406 -25.597656 1.585938 -25.199219 C 0.828125 -19.621094 0 -12.527344 0 -6.191406 C 0 -4.210938 0.0703125 -2.375 0.253906 -0.648438 C 0.289062 -0.253906 0.539062 0 0.9375 0 C 1.332031 0 1.621094 -0.179688 1.65625 -0.574219 C 3.527344 -10.261719 4.933594 -20.773438 6.335938 -20.773438 C 7.882812 -20.773438 8.53125 -11.914062 8.53125 -7.019531 C 8.53125 -6.046875 8.496094 -5.257812 8.460938 -4.679688 C 8.425781 -4.246094 8.785156 -3.886719 9.214844 -3.886719 C 9.613281 -3.886719 9.863281 -4.140625 9.898438 -4.535156 C 11.050781 -18.179688 14.074219 -24.730469 15.265625 -24.625 C 15.515625 -24.589844 16.09375 -24.085938 16.414062 -22.03125 C 16.847656 -19.152344 17.0625 -16.488281 17.0625 -13.140625 C 17.0625 -9.394531 16.8125 -4.789062 16.414062 2.015625 C 16.378906 2.410156 16.667969 2.773438 17.0625 2.773438 Z M 17.136719 2.773438 "/></g></g></g></svg>